<?xml version="1.0" encoding="UTF-8" standalone="no"?>
<!-- Created with Inkscape (http://www.inkscape.org/) -->

<svg
   xmlns:dc="http://purl.org/dc/elements/1.1/"
   xmlns:cc="http://creativecommons.org/ns#"
   xmlns:rdf="http://www.w3.org/1999/02/22-rdf-syntax-ns#"
   xmlns:svg="http://www.w3.org/2000/svg"
   xmlns="http://www.w3.org/2000/svg"
   xmlns:sodipodi="http://sodipodi.sourceforge.net/DTD/sodipodi-0.dtd"
   xmlns:inkscape="http://www.inkscape.org/namespaces/inkscape"
   width="1100mm"
   height="1100mm"
   viewBox="0 0 1100 1100"
   version="1.1"
   id="svg1606"
   inkscape:version="0.92.3 (2405546, 2018-03-11)"
   sodipodi:docname="parts-box.svg">
  <defs
     id="defs1600">
    <marker
       style="overflow:visible"
       refY="0"
       refX="0"
       orient="auto"
       inkscape:stockid="Arrow2Send"
       inkscape:isstock="true"
       id="marker1467">
      <path
         inkscape:connector-curvature="0"
         transform="matrix(-0.3,0,0,-0.3,0.69,0)"
         style="fill:#000000;fill-opacity:1;stroke:#000000;stroke-opacity:1"
         id="path1465"
         d="M 8.72,4.03 -2.21,0.02 8.72,-4 c -1.75,2.37 -1.74,5.62 0,8.03 z" />
    </marker>
    <marker
       style="overflow:visible"
       refY="0"
       refX="0"
       orient="auto"
       inkscape:stockid="Arrow2Sstart"
       inkscape:isstock="true"
       id="marker1367">
      <path
         inkscape:connector-curvature="0"
         transform="matrix(0.3,0,0,0.3,-0.69,0)"
         style="fill:#000000;fill-opacity:1;stroke:#000000;stroke-opacity:1"
         id="path1365"
         d="M 8.72,4.03 -2.21,0.02 8.72,-4 c -1.75,2.37 -1.74,5.62 0,8.03 z" />
    </marker>
    <marker
       style="overflow:visible"
       refY="0"
       refX="0"
       orient="auto"
       inkscape:stockid="Arrow2Send"
       inkscape:isstock="true"
       id="marker1948">
      <path
         inkscape:connector-curvature="0"
         transform="matrix(-0.3,0,0,-0.3,0.69,0)"
         style="fill:#000000;fill-opacity:1;stroke:#000000;stroke-opacity:1"
         id="path1946"
         d="M 8.72,4.03 -2.21,0.02 8.72,-4 c -1.75,2.37 -1.74,5.62 0,8.03 z" />
    </marker>
    <marker
       style="overflow:visible"
       refY="0"
       refX="0"
       orient="auto"
       inkscape:stockid="Arrow2Sstart"
       inkscape:isstock="true"
       id="marker1860">
      <path
         inkscape:connector-curvature="0"
         transform="matrix(0.3,0,0,0.3,-0.69,0)"
         style="fill:#000000;fill-opacity:1;stroke:#000000;stroke-opacity:1"
         id="path1858"
         d="M 8.72,4.03 -2.21,0.02 8.72,-4 c -1.75,2.37 -1.74,5.62 0,8.03 z" />
    </marker>
    <marker
       style="overflow:visible"
       refY="0"
       refX="0"
       orient="auto"
       inkscape:stockid="Arrow2Send"
       inkscape:isstock="true"
       id="marker1735">
      <path
         inkscape:connector-curvature="0"
         transform="matrix(-0.3,0,0,-0.3,0.69,0)"
         style="fill:#000000;fill-opacity:1;stroke:#000000;stroke-opacity:1"
         id="path1733"
         d="M 8.72,4.03 -2.21,0.02 8.72,-4 c -1.75,2.37 -1.74,5.62 0,8.03 z" />
    </marker>
    <marker
       style="overflow:visible"
       refY="0"
       refX="0"
       orient="auto"
       inkscape:stockid="Arrow2Sstart"
       inkscape:isstock="true"
       id="marker1659">
      <path
         inkscape:connector-curvature="0"
         transform="matrix(0.3,0,0,0.3,-0.69,0)"
         style="fill:#000000;fill-opacity:1;stroke:#000000;stroke-opacity:1"
         id="path1657"
         d="M 8.72,4.03 -2.21,0.02 8.72,-4 c -1.75,2.37 -1.74,5.62 0,8.03 z" />
    </marker>
    <inkscape:perspective
       sodipodi:type="inkscape:persp3d"
       inkscape:vp_x="0 : 550 : 1"
       inkscape:vp_y="0 : 1000 : 0"
       inkscape:vp_z="1100 : 550 : 1"
       inkscape:persp3d-origin="550 : 366.66667 : 1"
       id="perspective1232" />
    <marker
       style="overflow:visible"
       refY="0"
       refX="0"
       orient="auto"
       inkscape:stockid="Arrow2Send"
       inkscape:isstock="true"
       id="marker5864">
      <path
         inkscape:connector-curvature="0"
         transform="matrix(-0.3,0,0,-0.3,0.69,0)"
         style="fill:#000000;fill-opacity:1;stroke:#000000;stroke-opacity:1"
         id="path5862"
         d="M 8.72,4.03 -2.21,0.02 8.72,-4 c -1.75,2.37 -1.74,5.62 0,8.03 z" />
    </marker>
    <marker
       style="overflow:visible"
       refY="0"
       refX="0"
       orient="auto"
       inkscape:stockid="Arrow2Sstart"
       inkscape:isstock="true"
       id="marker5812">
      <path
         inkscape:connector-curvature="0"
         transform="matrix(0.3,0,0,0.3,-0.69,0)"
         style="fill:#000000;fill-opacity:1;stroke:#000000;stroke-opacity:1"
         id="path5810"
         d="M 8.72,4.03 -2.21,0.02 8.72,-4 c -1.75,2.37 -1.74,5.62 0,8.03 z" />
    </marker>
    <marker
       style="overflow:visible"
       refY="0"
       refX="0"
       orient="auto"
       inkscape:stockid="Arrow2Send"
       inkscape:isstock="true"
       id="marker5776">
      <path
         inkscape:connector-curvature="0"
         transform="matrix(-0.3,0,0,-0.3,0.69,0)"
         style="fill:#000000;fill-opacity:1;stroke:#000000;stroke-opacity:1"
         id="path5774"
         d="M 8.72,4.03 -2.21,0.02 8.72,-4 c -1.75,2.37 -1.74,5.62 0,8.03 z" />
    </marker>
    <marker
       style="overflow:visible"
       refY="0"
       refX="0"
       orient="auto"
       inkscape:stockid="Arrow2Sstart"
       inkscape:isstock="true"
       id="marker5616">
      <path
         inkscape:connector-curvature="0"
         transform="matrix(0.3,0,0,0.3,-0.69,0)"
         style="fill:#000000;fill-opacity:1;stroke:#000000;stroke-opacity:1"
         id="path5614"
         d="M 8.72,4.03 -2.21,0.02 8.72,-4 c -1.75,2.37 -1.74,5.62 0,8.03 z" />
    </marker>
    <marker
       id="Arrow2Sstart"
       inkscape:isstock="true"
       inkscape:stockid="Arrow2Sstart"
       orient="auto"
       refX="0"
       refY="0"
       style="overflow:visible"
       inkscape:collect="always">
      <path
         d="M 8.72,4.03 -2.21,0.02 8.72,-4 c -1.75,2.37 -1.74,5.62 0,8.03 z"
         id="Arrow2SstartPath"
         style="fill:#000000;fill-opacity:1;stroke:#000000;stroke-opacity:1"
         transform="matrix(0.3,0,0,0.3,-0.69,0)"
         inkscape:connector-curvature="0" />
    </marker>
    <marker
       id="Arrow2Send"
       inkscape:isstock="true"
       inkscape:stockid="Arrow2Send"
       orient="auto"
       refX="0"
       refY="0"
       style="overflow:visible"
       inkscape:collect="always">
      <path
         d="M 8.72,4.03 -2.21,0.02 8.72,-4 c -1.75,2.37 -1.74,5.62 0,8.03 z"
         id="Arrow2SendPath"
         style="fill:#000000;fill-opacity:1;stroke:#000000;stroke-opacity:1"
         transform="matrix(-0.3,0,0,-0.3,0.69,0)"
         inkscape:connector-curvature="0" />
    </marker>
    <marker
       id="Arrow2Sstart-1"
       inkscape:isstock="true"
       inkscape:stockid="Arrow2Sstart"
       orient="auto"
       refX="0"
       refY="0"
       style="overflow:visible">
      <path
         d="M 8.72,4.03 -2.21,0.02 8.72,-4 c -1.75,2.37 -1.74,5.62 0,8.03 z"
         id="Arrow2SstartPath-5"
         style="fill:#000000;fill-opacity:1;stroke:#000000;stroke-opacity:1"
         transform="matrix(0.3,0,0,0.3,-0.69,0)"
         inkscape:connector-curvature="0" />
    </marker>
    <marker
       id="Arrow2Send-9"
       inkscape:isstock="true"
       inkscape:stockid="Arrow2Send"
       orient="auto"
       refX="0"
       refY="0"
       style="overflow:visible">
      <path
         d="M 8.72,4.03 -2.21,0.02 8.72,-4 c -1.75,2.37 -1.74,5.62 0,8.03 z"
         id="Arrow2SendPath-1"
         style="fill:#000000;fill-opacity:1;stroke:#000000;stroke-opacity:1"
         transform="matrix(-0.3,0,0,-0.3,0.69,0)"
         inkscape:connector-curvature="0" />
    </marker>
    <marker
       style="overflow:visible"
       refY="0"
       refX="0"
       orient="auto"
       inkscape:stockid="Arrow2Sstart"
       inkscape:isstock="true"
       id="marker5812-6">
      <path
         inkscape:connector-curvature="0"
         transform="matrix(0.3,0,0,0.3,-0.69,0)"
         style="fill:#000000;fill-opacity:1;stroke:#000000;stroke-opacity:1"
         id="path5810-6"
         d="M 8.72,4.03 -2.21,0.02 8.72,-4 c -1.75,2.37 -1.74,5.62 0,8.03 z" />
    </marker>
    <marker
       style="overflow:visible"
       refY="0"
       refX="0"
       orient="auto"
       inkscape:stockid="Arrow2Send"
       inkscape:isstock="true"
       id="marker5864-3">
      <path
         inkscape:connector-curvature="0"
         transform="matrix(-0.3,0,0,-0.3,0.69,0)"
         style="fill:#000000;fill-opacity:1;stroke:#000000;stroke-opacity:1"
         id="path5862-8"
         d="M 8.72,4.03 -2.21,0.02 8.72,-4 c -1.75,2.37 -1.74,5.62 0,8.03 z" />
    </marker>
  </defs>
  <sodipodi:namedview
     id="base"
     pagecolor="#ffffff"
     bordercolor="#666666"
     borderopacity="1.0"
     inkscape:pageopacity="0.0"
     inkscape:pageshadow="2"
     inkscape:zoom="0.30746503"
     inkscape:cx="795.23011"
     inkscape:cy="1367.1461"
     inkscape:document-units="mm"
     inkscape:current-layer="layer1"
     showgrid="true"
     fit-margin-top="0"
     fit-margin-left="0"
     fit-margin-right="0"
     fit-margin-bottom="0"
     inkscape:window-width="1920"
     inkscape:window-height="1017"
     inkscape:window-x="-8"
     inkscape:window-y="-8"
     inkscape:window-maximized="1"
     showguides="true"
     inkscape:pagecheckerboard="false"
     inkscape:measure-start="1719.69,340.157"
     inkscape:measure-end="1715.65,349.569"
     objecttolerance="10000"
     guidetolerance="10000">
    <inkscape:grid
       type="xygrid"
       id="grid2161"
       units="mm"
       spacingx="0.99999999"
       spacingy="0.99999999"
       empspacing="5"
       empcolor="#3f3f10"
       empopacity="0.25098039"
       color="#3fe59a"
       opacity="0.1254902"
       dotted="false" />
  </sodipodi:namedview>
  <metadata
     id="metadata1603">
    <rdf:RDF>
      <cc:Work
         rdf:about="">
        <dc:format>image/svg+xml</dc:format>
        <dc:type
           rdf:resource="http://purl.org/dc/dcmitype/StillImage" />
        <dc:title />
      </cc:Work>
    </rdf:RDF>
  </metadata>
  <g
     inkscape:label="Layer 1"
     inkscape:groupmode="layer"
     id="layer1"
     transform="translate(0,803)">
    <path
       style="fill:#000000;fill-opacity:1;stroke:#ff0000;stroke-width:0.00999965;stroke-miterlimit:5.92000008;stroke-dasharray:none;stroke-opacity:1"
       d="m 240.00985,-788.01421 v 15.00012 h -4.98574 v 19.98587 h 4.98574 v 30.02814 h -4.98574 v 19.98586 h 4.98574 v 30.01419 h -4.98574 v 19.98586 h 4.98574 v 29.99971 h -4.98574 v 19.98637 h 4.98574 v 15.00375 h 499.99014 v -14.9898 h 4.99555 v -19.98585 h -4.99555 v -30.00023 h 4.99555 v -19.98586 h -4.99555 v -30.01419 h 4.99555 v -19.98586 h -4.99555 v -30.02814 h 4.99555 v -19.98587 h -4.99555 v -15.01407 z"
       id="rect2163-3"
       inkscape:connector-curvature="0" />
    <g
       id="g209">
      <path
         inkscape:connector-curvature="0"
         id="rect884-7"
         d="m 215.00469,-783.00487 h -0.01 -15.014 v 4.99557 h -19.9859 v -4.99557 h -30.0281 v 4.99557 h -19.9859 v -4.99557 H 99.966606 v 4.99557 H 79.9808 v -4.99557 H 49.98057 v 4.99557 H 29.99471 v -4.99557 H 15.00493 v 509.99988 h 0.0243 15.00373 v -4.9857 h 19.98638 v 4.9857 h 29.9997 v -4.9857 h 19.9858 v 4.9857 h 30.01415 v -4.9857 h 19.9859 v 4.9857 h 30.0281 v -4.9857 h 19.9859 v 4.9857 h 14.9862 z"
         style="fill:#000000;fill-opacity:1;stroke:#ff0000;stroke-width:0.01;stroke-miterlimit:5.92000008;stroke-dasharray:none;stroke-opacity:1" />
      <rect
         y="-753"
         x="205.00012"
         height="9.999999"
         width="4.999999"
         id="rect3733"
         style="fill:#ffffff;fill-opacity:1;stroke:#000000;stroke-width:0;stroke-miterlimit:5.92000008;stroke-dasharray:none;stroke-opacity:1" />
      <rect
         y="-613"
         x="205.00012"
         height="10"
         width="5"
         id="rect3733-4"
         style="fill:#ffffff;fill-opacity:1;stroke:#000000;stroke-width:0;stroke-miterlimit:5.92000008;stroke-dasharray:none;stroke-opacity:1" />
      <rect
         y="-333"
         x="205.00012"
         height="10"
         width="5"
         id="rect3733-9"
         style="fill:#ffffff;fill-opacity:1;stroke:#000000;stroke-width:0;stroke-miterlimit:5.92000008;stroke-dasharray:none;stroke-opacity:1" />
      <rect
         y="-473"
         x="205.00012"
         height="10"
         width="5"
         id="rect3733-6"
         style="fill:#ffffff;fill-opacity:1;stroke:#000000;stroke-width:0;stroke-miterlimit:5.92000008;stroke-dasharray:none;stroke-opacity:1" />
      <rect
         y="-403"
         x="205.00012"
         height="10"
         width="5"
         id="rect3733-40"
         style="fill:#ffffff;fill-opacity:1;stroke:#000000;stroke-width:0;stroke-miterlimit:5.92000008;stroke-dasharray:none;stroke-opacity:1" />
      <rect
         y="-683"
         x="205.00012"
         height="10"
         width="5"
         id="rect3733-5"
         style="fill:#ffffff;fill-opacity:1;stroke:#000000;stroke-width:0;stroke-miterlimit:5.92000008;stroke-dasharray:none;stroke-opacity:1" />
      <rect
         y="-543"
         x="205.00012"
         height="10"
         width="5"
         id="rect3733-2"
         style="fill:#ffffff;fill-opacity:1;stroke:#000000;stroke-width:0;stroke-miterlimit:5.92000008;stroke-dasharray:none;stroke-opacity:1" />
      <rect
         transform="rotate(-90)"
         y="19.999926"
         x="282.99997"
         height="10"
         width="5"
         id="rect3733-9-6"
         style="fill:#ffffff;fill-opacity:1;stroke:#000000;stroke-width:0;stroke-miterlimit:5.92000008;stroke-dasharray:none;stroke-opacity:1" />
      <rect
         transform="rotate(-90)"
         y="19.999926"
         x="352.99994"
         height="10"
         width="5"
         id="rect3733-9-6-1"
         style="fill:#ffffff;fill-opacity:1;stroke:#000000;stroke-width:0;stroke-miterlimit:5.92000008;stroke-dasharray:none;stroke-opacity:1" />
      <rect
         transform="rotate(-90)"
         y="19.999926"
         x="422.99994"
         height="10"
         width="5"
         id="rect3733-9-6-9"
         style="fill:#ffffff;fill-opacity:1;stroke:#000000;stroke-width:0;stroke-miterlimit:5.92000008;stroke-dasharray:none;stroke-opacity:1" />
      <rect
         transform="rotate(-90)"
         y="19.999926"
         x="493"
         height="10"
         width="5"
         id="rect3733-9-6-1-6"
         style="fill:#ffffff;fill-opacity:1;stroke:#000000;stroke-width:0;stroke-miterlimit:5.92000008;stroke-dasharray:none;stroke-opacity:1" />
      <rect
         transform="rotate(-90)"
         y="19.999926"
         x="563"
         height="10"
         width="5"
         id="rect3733-9-6-3"
         style="fill:#ffffff;fill-opacity:1;stroke:#000000;stroke-width:0;stroke-miterlimit:5.92000008;stroke-dasharray:none;stroke-opacity:1" />
      <rect
         transform="rotate(-90)"
         y="19.999926"
         x="633"
         height="10"
         width="5"
         id="rect3733-9-6-1-2"
         style="fill:#ffffff;fill-opacity:1;stroke:#000000;stroke-width:0;stroke-miterlimit:5.92000008;stroke-dasharray:none;stroke-opacity:1" />
      <rect
         transform="rotate(-90)"
         y="19.999926"
         x="703"
         height="10"
         width="5"
         id="rect3733-9-6-9-5"
         style="fill:#ffffff;fill-opacity:1;stroke:#000000;stroke-width:0;stroke-miterlimit:5.92000008;stroke-dasharray:none;stroke-opacity:1" />
      <path
         inkscape:connector-curvature="0"
         id="path5329"
         d="m 13.677016,-771.67672 v 67.35498"
         style="fill:none;stroke:#000000;stroke-width:0.26458299;stroke-linecap:square;stroke-linejoin:miter;stroke-miterlimit:4;stroke-dasharray:none;stroke-opacity:1;marker-start:url(#Arrow2Sstart);marker-end:url(#Arrow2Send)" />
      <text
         transform="rotate(-90)"
         id="text5357"
         y="12.288652"
         x="738.01904"
         style="font-style:normal;font-weight:normal;font-size:10.58333302px;line-height:1.25;font-family:sans-serif;letter-spacing:0px;word-spacing:0px;fill:#000000;fill-opacity:1;stroke:none;stroke-width:1"
         xml:space="preserve"><tspan
           y="12.288652"
           x="738.01904"
           id="tspan5355"
           style="font-style:normal;font-weight:normal;font-size:3.52777767px;line-height:125%;text-align:center;letter-spacing:0;word-spacing:0;text-anchor:middle;fill:#000000;fill-opacity:1;stroke:none;stroke-width:1"
           sodipodi:role="line">70.00 mm</tspan></text>
      <rect
         transform="rotate(-90)"
         y="110"
         x="283"
         height="10"
         width="5"
         id="rect3733-9-6-5"
         style="fill:#ffffff;fill-opacity:1;stroke:#000000;stroke-width:0;stroke-miterlimit:5.92000008;stroke-dasharray:none;stroke-opacity:1" />
      <rect
         transform="rotate(-90)"
         y="110"
         x="352.99951"
         height="10"
         width="5"
         id="rect3733-9-6-1-4"
         style="fill:#ffffff;fill-opacity:1;stroke:#000000;stroke-width:0;stroke-miterlimit:5.92000008;stroke-dasharray:none;stroke-opacity:1" />
      <rect
         transform="rotate(-90)"
         y="110"
         x="423"
         height="10"
         width="5"
         id="rect3733-9-6-9-8"
         style="fill:#ffffff;fill-opacity:1;stroke:#000000;stroke-width:0;stroke-miterlimit:5.92000008;stroke-dasharray:none;stroke-opacity:1" />
      <rect
         transform="rotate(-90)"
         y="110"
         x="493"
         height="10"
         width="5"
         id="rect3733-9-6-1-6-0"
         style="fill:#ffffff;fill-opacity:1;stroke:#000000;stroke-width:0;stroke-miterlimit:5.92000008;stroke-dasharray:none;stroke-opacity:1" />
      <rect
         transform="rotate(-90)"
         y="110"
         x="563"
         height="10"
         width="5"
         id="rect3733-9-6-3-0"
         style="fill:#ffffff;fill-opacity:1;stroke:#000000;stroke-width:0;stroke-miterlimit:5.92000008;stroke-dasharray:none;stroke-opacity:1" />
      <rect
         transform="rotate(-90)"
         y="110"
         x="633"
         height="10"
         width="5"
         id="rect3733-9-6-1-2-3"
         style="fill:#ffffff;fill-opacity:1;stroke:#000000;stroke-width:0;stroke-miterlimit:5.92000008;stroke-dasharray:none;stroke-opacity:1" />
      <rect
         transform="rotate(-90)"
         y="110"
         x="703"
         height="10"
         width="5"
         id="rect3733-9-6-9-5-1"
         style="fill:#ffffff;fill-opacity:1;stroke:#000000;stroke-width:0;stroke-miterlimit:5.92000008;stroke-dasharray:none;stroke-opacity:1" />
    </g>
    <g
       id="g259"
       transform="translate(4.9999913,4.9999448)">
      <path
         inkscape:connector-curvature="0"
         id="rect884-7-5"
         d="m 769.99515,-783.00483 h 0.01 15.014 v 4.99557 h 19.9859 v -4.99557 h 30.0281 v 4.99557 h 19.9859 v -4.99557 h 30.0142 v 4.99557 h 19.98585 v -4.99557 h 30.00024 v 4.99557 h 19.98586 v -4.99557 h 14.98978 v 509.99987 h -0.0243 -15.00373 v -4.9857 h -19.98638 v 4.9857 h -29.99971 v -4.9857 h -19.98585 v 4.9857 h -30.01417 v -4.9857 h -19.9859 v 4.9857 h -30.0281 v -4.9857 h -19.9859 v 4.9857 h -14.9862 z"
         style="fill:#000000;fill-opacity:1;stroke:#ff0000;stroke-width:0.01;stroke-miterlimit:5.92000008;stroke-dasharray:none;stroke-opacity:1" />
      <rect
         transform="scale(-1,1)"
         y="-753"
         x="-780"
         height="9.999999"
         width="4.999999"
         id="rect3733-0"
         style="fill:#ffffff;fill-opacity:1;stroke:#000000;stroke-width:0;stroke-miterlimit:5.92000008;stroke-dasharray:none;stroke-opacity:1" />
      <rect
         transform="scale(-1,1)"
         y="-613"
         x="-780"
         height="10"
         width="5"
         id="rect3733-4-9"
         style="fill:#ffffff;fill-opacity:1;stroke:#000000;stroke-width:0;stroke-miterlimit:5.92000008;stroke-dasharray:none;stroke-opacity:1" />
      <rect
         transform="scale(-1,1)"
         y="-332.99994"
         x="-780"
         height="10"
         width="5"
         id="rect3733-9-4"
         style="fill:#ffffff;fill-opacity:1;stroke:#000000;stroke-width:0;stroke-miterlimit:5.92000008;stroke-dasharray:none;stroke-opacity:1" />
      <rect
         transform="scale(-1,1)"
         y="-473"
         x="-780"
         height="10"
         width="5"
         id="rect3733-6-7"
         style="fill:#ffffff;fill-opacity:1;stroke:#000000;stroke-width:0;stroke-miterlimit:5.92000008;stroke-dasharray:none;stroke-opacity:1" />
      <rect
         transform="scale(-1,1)"
         y="-402.99994"
         x="-780"
         height="10"
         width="5"
         id="rect3733-40-8"
         style="fill:#ffffff;fill-opacity:1;stroke:#000000;stroke-width:0;stroke-miterlimit:5.92000008;stroke-dasharray:none;stroke-opacity:1" />
      <rect
         transform="scale(-1,1)"
         y="-683"
         x="-780"
         height="10"
         width="5"
         id="rect3733-5-0"
         style="fill:#ffffff;fill-opacity:1;stroke:#000000;stroke-width:0;stroke-miterlimit:5.92000008;stroke-dasharray:none;stroke-opacity:1" />
      <rect
         transform="scale(-1,1)"
         y="-543"
         x="-780"
         height="10"
         width="5"
         id="rect3733-2-9"
         style="fill:#ffffff;fill-opacity:1;stroke:#000000;stroke-width:0;stroke-miterlimit:5.92000008;stroke-dasharray:none;stroke-opacity:1" />
      <rect
         transform="matrix(0,-1,-1,0,0,0)"
         y="-965"
         x="282.99991"
         height="10"
         width="5"
         id="rect3733-9-6-36"
         style="fill:#ffffff;fill-opacity:1;stroke:#000000;stroke-width:0;stroke-miterlimit:5.92000008;stroke-dasharray:none;stroke-opacity:1" />
      <rect
         transform="matrix(0,-1,-1,0,0,0)"
         y="-965"
         x="352.99991"
         height="10"
         width="5"
         id="rect3733-9-6-1-68"
         style="fill:#ffffff;fill-opacity:1;stroke:#000000;stroke-width:0;stroke-miterlimit:5.92000008;stroke-dasharray:none;stroke-opacity:1" />
      <rect
         transform="matrix(0,-1,-1,0,0,0)"
         y="-965"
         x="422.99988"
         height="10"
         width="5"
         id="rect3733-9-6-9-53"
         style="fill:#ffffff;fill-opacity:1;stroke:#000000;stroke-width:0;stroke-miterlimit:5.92000008;stroke-dasharray:none;stroke-opacity:1" />
      <rect
         transform="matrix(0,-1,-1,0,0,0)"
         y="-965"
         x="493"
         height="10"
         width="5"
         id="rect3733-9-6-1-6-6"
         style="fill:#ffffff;fill-opacity:1;stroke:#000000;stroke-width:0;stroke-miterlimit:5.92000008;stroke-dasharray:none;stroke-opacity:1" />
      <rect
         transform="matrix(0,-1,-1,0,0,0)"
         y="-965"
         x="563"
         height="10"
         width="5"
         id="rect3733-9-6-3-9"
         style="fill:#ffffff;fill-opacity:1;stroke:#000000;stroke-width:0;stroke-miterlimit:5.92000008;stroke-dasharray:none;stroke-opacity:1" />
      <rect
         transform="matrix(0,-1,-1,0,0,0)"
         y="-965"
         x="633"
         height="10"
         width="5"
         id="rect3733-9-6-1-2-4"
         style="fill:#ffffff;fill-opacity:1;stroke:#000000;stroke-width:0;stroke-miterlimit:5.92000008;stroke-dasharray:none;stroke-opacity:1" />
      <rect
         transform="matrix(0,-1,-1,0,0,0)"
         y="-965"
         x="703"
         height="10"
         width="5"
         id="rect3733-9-6-9-5-3"
         style="fill:#ffffff;fill-opacity:1;stroke:#000000;stroke-width:0;stroke-miterlimit:5.92000008;stroke-dasharray:none;stroke-opacity:1" />
      <path
         inkscape:connector-curvature="0"
         id="path5329-7"
         d="m 971.32289,-771.67668 v 67.35498"
         style="fill:none;stroke:#000000;stroke-width:0.26458299;stroke-linecap:square;stroke-linejoin:miter;stroke-miterlimit:4;stroke-dasharray:none;stroke-opacity:1;marker-start:url(#Arrow2Sstart-1);marker-end:url(#Arrow2Send-9)" />
      <text
         transform="matrix(0,-1,-1,0,0,0)"
         id="text5357-8"
         y="-972.7113"
         x="738.01904"
         style="font-style:normal;font-weight:normal;font-size:10.58333302px;line-height:1.25;font-family:sans-serif;letter-spacing:0px;word-spacing:0px;fill:#000000;fill-opacity:1;stroke:none;stroke-width:1"
         xml:space="preserve"><tspan
           y="-972.7113"
           x="738.01904"
           id="tspan5355-8"
           style="font-style:normal;font-weight:normal;font-size:3.52777767px;line-height:125%;text-align:center;letter-spacing:0;word-spacing:0;text-anchor:middle;fill:#000000;fill-opacity:1;stroke:none;stroke-width:1"
           sodipodi:role="line">70.00 mm</tspan></text>
      <rect
         transform="matrix(0,-1,-1,0,0,0)"
         y="-875"
         x="282.99994"
         height="10"
         width="5"
         id="rect3733-9-6-5-0"
         style="fill:#ffffff;fill-opacity:1;stroke:#000000;stroke-width:0;stroke-miterlimit:5.92000008;stroke-dasharray:none;stroke-opacity:1" />
      <rect
         transform="matrix(0,-1,-1,0,0,0)"
         y="-875"
         x="352.99945"
         height="10"
         width="5"
         id="rect3733-9-6-1-4-8"
         style="fill:#ffffff;fill-opacity:1;stroke:#000000;stroke-width:0;stroke-miterlimit:5.92000008;stroke-dasharray:none;stroke-opacity:1" />
      <rect
         transform="matrix(0,-1,-1,0,0,0)"
         y="-875"
         x="422.99994"
         height="10"
         width="5"
         id="rect3733-9-6-9-8-4"
         style="fill:#ffffff;fill-opacity:1;stroke:#000000;stroke-width:0;stroke-miterlimit:5.92000008;stroke-dasharray:none;stroke-opacity:1" />
      <rect
         transform="matrix(0,-1,-1,0,0,0)"
         y="-875"
         x="493"
         height="10"
         width="5"
         id="rect3733-9-6-1-6-0-7"
         style="fill:#ffffff;fill-opacity:1;stroke:#000000;stroke-width:0;stroke-miterlimit:5.92000008;stroke-dasharray:none;stroke-opacity:1" />
      <rect
         transform="matrix(0,-1,-1,0,0,0)"
         y="-875"
         x="563"
         height="10"
         width="5"
         id="rect3733-9-6-3-0-7"
         style="fill:#ffffff;fill-opacity:1;stroke:#000000;stroke-width:0;stroke-miterlimit:5.92000008;stroke-dasharray:none;stroke-opacity:1" />
      <rect
         transform="matrix(0,-1,-1,0,0,0)"
         y="-875"
         x="633"
         height="10"
         width="5"
         id="rect3733-9-6-1-2-3-8"
         style="fill:#ffffff;fill-opacity:1;stroke:#000000;stroke-width:0;stroke-miterlimit:5.92000008;stroke-dasharray:none;stroke-opacity:1" />
      <rect
         transform="matrix(0,-1,-1,0,0,0)"
         y="-875"
         x="703"
         height="10"
         width="5"
         id="rect3733-9-6-9-5-1-0"
         style="fill:#ffffff;fill-opacity:1;stroke:#000000;stroke-width:0;stroke-miterlimit:5.92000008;stroke-dasharray:none;stroke-opacity:1" />
    </g>
    <g
       id="g232">
      <path
         inkscape:connector-curvature="0"
         id="rect5592"
         d="m 229.17926,-543.33019 v 4.9997 h -5.00021 v 9.9999 h 5.00021 v 5.00023 h 499.99996 v -5.00023 h 4.99969 v -9.9999 h -4.99969 v -4.9997 z"
         style="fill:#000000;fill-opacity:1;stroke:#000000;stroke-width:0;stroke-miterlimit:5.92000008;stroke-dasharray:none;stroke-opacity:1" />
      <rect
         y="-538.33044"
         x="289.17908"
         height="10"
         width="1.9999999"
         id="rect6107"
         style="fill:#ffffff;fill-opacity:1;stroke:#000000;stroke-width:0;stroke-miterlimit:5.92000008;stroke-dasharray:none;stroke-opacity:1" />
      <rect
         y="-538.33044"
         x="351.17908"
         height="10"
         width="1.9999999"
         id="rect6107-8"
         style="fill:#ffffff;fill-opacity:1;stroke:#000000;stroke-width:0;stroke-miterlimit:5.92000008;stroke-dasharray:none;stroke-opacity:1" />
      <rect
         y="-538.33044"
         x="413.17908"
         height="10"
         width="1.9999999"
         id="rect6107-9"
         style="fill:#ffffff;fill-opacity:1;stroke:#000000;stroke-width:0;stroke-miterlimit:5.92000008;stroke-dasharray:none;stroke-opacity:1" />
      <rect
         y="-538.33044"
         x="475.17908"
         height="10"
         width="1.9999999"
         id="rect6107-84"
         style="fill:#ffffff;fill-opacity:1;stroke:#000000;stroke-width:0;stroke-miterlimit:5.92000008;stroke-dasharray:none;stroke-opacity:1" />
      <rect
         y="-538.33044"
         x="537.17908"
         height="10"
         width="1.9999999"
         id="rect6107-7"
         style="fill:#ffffff;fill-opacity:1;stroke:#000000;stroke-width:0;stroke-miterlimit:5.92000008;stroke-dasharray:none;stroke-opacity:1" />
      <rect
         y="-538.33044"
         x="599.17908"
         height="10"
         width="1.9999999"
         id="rect6107-72"
         style="fill:#ffffff;fill-opacity:1;stroke:#000000;stroke-width:0;stroke-miterlimit:5.92000008;stroke-dasharray:none;stroke-opacity:1" />
      <rect
         y="-538.33044"
         x="661.17908"
         height="10"
         width="1.9999999"
         id="rect6107-4"
         style="fill:#ffffff;fill-opacity:1;stroke:#000000;stroke-width:0;stroke-miterlimit:5.92000008;stroke-dasharray:none;stroke-opacity:1" />
    </g>
    <g
       id="g222">
      <path
         inkscape:connector-curvature="0"
         id="rect5592-0"
         d="m 231.00002,-453.99969 v 4.9997 h -5.00021 v 9.9999 h 5.00021 v 5.00023 h 499.99997 v -5.00023 h 4.99967 v -9.9999 h -4.99967 v -4.9997 z"
         style="fill:#000000;fill-opacity:1;stroke:#000000;stroke-width:0;stroke-miterlimit:5.92000008;stroke-dasharray:none;stroke-opacity:1" />
      <path
         inkscape:connector-curvature="0"
         id="path5808-4"
         d="m 241.08879,-437.00746 h 49.35417"
         style="fill:none;stroke:#000000;stroke-width:0.26458299;stroke-linecap:square;stroke-linejoin:miter;stroke-miterlimit:4;stroke-dasharray:none;stroke-opacity:1;marker-start:url(#marker5812-6);marker-end:url(#marker5864-3)" />
      <text
         transform="scale(-1)"
         id="text5922-7"
         y="435.61829"
         x="-265.77325"
         style="font-style:normal;font-weight:normal;font-size:10.58333302px;line-height:1.25;font-family:sans-serif;letter-spacing:0px;word-spacing:0px;fill:#000000;fill-opacity:1;stroke:none;stroke-width:1"
         xml:space="preserve"><tspan
           y="435.61829"
           x="-265.77325"
           id="tspan5920-4"
           style="font-style:normal;font-weight:normal;font-size:3.52777767px;line-height:125%;text-align:center;letter-spacing:0;word-spacing:0;text-anchor:middle;fill:#000000;fill-opacity:1;stroke:none;stroke-width:1"
           sodipodi:role="line">52.00 mm</tspan></text>
      <rect
         y="-448.33044"
         x="294.76465"
         height="10"
         width="1.9999999"
         id="rect6107-2"
         style="fill:#ffffff;fill-opacity:1;stroke:#000000;stroke-width:0;stroke-miterlimit:5.92000008;stroke-dasharray:none;stroke-opacity:1" />
      <rect
         y="-448.33044"
         x="356.76465"
         height="10"
         width="1.9999999"
         id="rect6107-8-9"
         style="fill:#ffffff;fill-opacity:1;stroke:#000000;stroke-width:0;stroke-miterlimit:5.92000008;stroke-dasharray:none;stroke-opacity:1" />
      <rect
         y="-448.33044"
         x="418.76465"
         height="10"
         width="1.9999999"
         id="rect6107-9-4"
         style="fill:#ffffff;fill-opacity:1;stroke:#000000;stroke-width:0;stroke-miterlimit:5.92000008;stroke-dasharray:none;stroke-opacity:1" />
      <rect
         y="-448.33044"
         x="480.76465"
         height="10"
         width="1.9999999"
         id="rect6107-84-5"
         style="fill:#ffffff;fill-opacity:1;stroke:#000000;stroke-width:0;stroke-miterlimit:5.92000008;stroke-dasharray:none;stroke-opacity:1" />
      <rect
         y="-448.33044"
         x="542.76465"
         height="10"
         width="1.9999999"
         id="rect6107-7-6"
         style="fill:#ffffff;fill-opacity:1;stroke:#000000;stroke-width:0;stroke-miterlimit:5.92000008;stroke-dasharray:none;stroke-opacity:1" />
      <rect
         y="-448.33044"
         x="604.76465"
         height="10"
         width="1.9999999"
         id="rect6107-72-1"
         style="fill:#ffffff;fill-opacity:1;stroke:#000000;stroke-width:0;stroke-miterlimit:5.92000008;stroke-dasharray:none;stroke-opacity:1" />
      <rect
         y="-448.33044"
         x="666.76465"
         height="10"
         width="1.9999999"
         id="rect6107-4-6"
         style="fill:#ffffff;fill-opacity:1;stroke:#000000;stroke-width:0;stroke-miterlimit:5.92000008;stroke-dasharray:none;stroke-opacity:1" />
    </g>
    <path
       style="fill:#808000;fill-opacity:1;stroke:#000000;stroke-width:0;stroke-miterlimit:5.92000008;stroke-dasharray:none;stroke-opacity:1"
       d="M 2815.748 982.67969 L 2815.748 1001.5742 L 2796.8496 1001.5742 L 2796.8496 1039.3691 L 2808.1895 1039.3691 L 2815.748 1039.3691 L 2815.748 1341.7324 L 2796.8496 1341.7324 L 2796.8496 1379.5273 L 2808.1895 1379.5273 L 2808.1895 1379.5293 L 2815.748 1379.5293 L 2815.748 1398.4277 L 2891.3379 1398.4277 L 2891.3379 982.67969 L 2815.748 982.67969 z "
       transform="matrix(0.26458333,0,0,0.26458333,0,-803)"
       id="rect6331" />
    <path
       style="fill:#808000;fill-opacity:1;stroke:#000000;stroke-width:0;stroke-miterlimit:5.92000008;stroke-dasharray:none;stroke-opacity:1"
       d="M 172.9996,-112.99991 V -103 H 175 v 50.000031 h 49.99952 V -103 h 2.00041 v -9.99991 H 224.99952 175 Z"
       id="rect1307"
       inkscape:connector-curvature="0" />
    <g
       id="g1632"
       transform="translate(4.9999989,-2.0195e-4)">
      <path
         sodipodi:nodetypes="cccccccccccccccccccccccccccccccccccccccccccccccccccccccccccccccccccccccccccccccsssscccccccccccccccccccccccccccccccccccccccccccccccccccccccccccccccccccccccccccccccccccccccccccc"
         inkscape:connector-curvature="0"
         id="rect1095"
         d="m 109.99969,-44.999724 v 1.999879 H 105 v 5.000228 h -1.99988 v 4.999673 H 105 v 5.000228 h -1.99988 v 4.999699 H 105 v 5.000201 h -1.99988 v 4.999699 H 105 v 5.0002008 h -1.99988 v 5.0002286 H 105 v 4.999699 h -1.99988 v 5.000201 H 105 v 4.9996986 h -1.99988 v 5.000203 H 105 v 5.000202 h -1.99988 v 4.999698 H 105 v 5.000229 h -1.99988 v 4.999698 H 105 v 5.000202 h -1.99988 v 5.000202 H 105 v 4.999699 h -1.99988 v 5.000228 H 105 v 4.999672 h -1.99988 v 5.000228 H 105 v 5.000202 h -1.99988 v 4.999699 H 105 v 5.000201 h -1.99988 v 4.999699 H 105 v 5.000231 h -1.99988 v 4.99967 H 105 v 5.000226 h -1.99988 v 5.0002 H 105 V 112 h -1.99988 v 5.0002 H 105 v 4.9997 h -1.99988 v 5.00023 H 105 v 5.0002 h -1.99988 v 4.9997 H 105 v 5.0002 h -1.99988 l 1.99978,-8e-5 1e-4,4.99978 v 6.95462 c 0,1.6873 1.26239,3.04581 2.83031,3.04581 h 44.33942 c 1.56791,0 2.83032,-1.35851 2.83032,-3.04581 v -6.95462 l -1.5e-4,2.1e-4 v -4.99999 l 1.5e-4,8e-5 v -5.0002 h 1.99987 v -4.9997 h -1.99987 v -5.0002 h 1.99987 v -5.00023 h -1.99987 v -4.9997 h 1.99987 V 112 h -1.99987 v -4.9997 h 1.99987 v -5.0002 h -1.99987 v -5.000226 h 1.99987 v -4.99967 h -1.99987 v -5.000231 h 1.99987 v -4.999699 h -1.99987 v -5.000201 h 1.99987 v -4.999699 h -1.99987 v -5.000202 h 1.99987 v -5.000228 h -1.99987 v -4.999672 h 1.99987 v -5.000228 h -1.99987 v -4.999699 h 1.99987 v -5.000202 h -1.99987 v -5.000202 h 1.99987 v -4.999698 h -1.99987 v -5.000229 h 1.99987 v -4.999698 h -1.99987 v -5.000202 h 1.99987 v -5.000203 h -1.99987 V 7.0002124 h 1.99987 v -5.000201 h -1.99987 v -4.999699 h 1.99987 v -5.0002286 h -1.99987 v -5.0002008 h 1.99987 v -4.999699 h -1.99987 v -5.000201 h 1.99987 v -4.999699 h -1.99987 v -5.000228 h 1.99987 v -4.999673 h -1.99987 v -5.000228 h -5.00022 v -1.999879 h -4.99969 v 1.999879 h -5.00021 v -1.999879 h -5.00021 v 1.999879 h -9.99991 v -1.999879 h -4.9997 v 1.999879 h -5.00021 v -1.999879 z"
         style="fill:#808000;fill-opacity:1;stroke:#000000;stroke-width:0;stroke-linejoin:round;stroke-miterlimit:5.92000008;stroke-dasharray:none;stroke-opacity:1" />
      <rect
         rx="2.0000167"
         ry="2.0000167"
         y="147"
         x="107"
         height="7.9999995"
         width="46"
         id="rect1253"
         style="fill:#ffffff;fill-opacity:1;stroke:#000000;stroke-width:0;stroke-miterlimit:5.92000008;stroke-dasharray:none;stroke-opacity:1" />
      <rect
         y="142"
         x="115"
         height="1.9999999"
         width="5"
         id="rect1126"
         style="fill:#ffffff;fill-opacity:1;stroke:#000000;stroke-width:0;stroke-miterlimit:5.92000008;stroke-dasharray:none;stroke-opacity:1" />
      <rect
         y="142"
         x="140"
         height="1.9999999"
         width="5"
         id="rect1124"
         style="fill:#ffffff;fill-opacity:1;stroke:#000000;stroke-width:0;stroke-miterlimit:5.92000008;stroke-dasharray:none;stroke-opacity:1" />
    </g>
    <path
       style="fill:#808000;fill-opacity:1;stroke:#000000;stroke-width:0;stroke-miterlimit:5.92000008;stroke-dasharray:none;stroke-opacity:1"
       d="m 81.999932,-50.999872 5.00022,-4.9e-4 v -1.99988 h 9.999899 v -2.99982 h 1.99988 v -4.9997 h -1.99988 v -5.000204 h 1.99988 v -5.00023 h -1.99988 v -4.9997 h 1.99988 v -5.0002 h -1.99988 v -4.9997 h 1.99988 v -5.0002 h -1.99988 v -5.000225 h 1.99988 v -4.999669 h -1.99988 v -5.00023 h 1.99988 v -4.9997 H 48.99988 47 45.00012 v 4.9997 H 47 v 5.00023 h -1.99988 v 4.999669 H 47 v 5.000225 h -1.99988 v 5.0002 H 47 v 4.9997 h -1.99988 v 5.0002 H 47 v 4.9997 h -1.99988 v 5.00023 H 47 v 5.000204 h -1.99988 v 4.9997 H 47 v 3.00032 h 1.99988 8.000032 v 1.99987 h 5.00021 v -1.99987 h 19.99981 z"
       id="rect1120"
       inkscape:connector-curvature="0" />
    <g
       id="g1572"
       transform="translate(5.0012022,-0.9999996)">
      <rect
         transform="scale(-1,1)"
         y="72.999733"
         x="-49.99926"
         height="1.9999999"
         width="10.000003"
         id="rect1831-5"
         style="fill:#ffffff;fill-opacity:1;stroke:#000000;stroke-width:0;stroke-linecap:round;stroke-linejoin:round;stroke-miterlimit:5.92000008;stroke-dasharray:none;stroke-opacity:1" />
      <rect
         transform="scale(-1,1)"
         y="21.999739"
         x="-49.999245"
         height="1.9999999"
         width="9.999999"
         id="rect1831-4-1"
         style="fill:#ffffff;fill-opacity:1;stroke:#000000;stroke-width:0;stroke-linecap:round;stroke-linejoin:round;stroke-miterlimit:5.92000008;stroke-dasharray:none;stroke-opacity:1" />
      <rect
         style="fill:#ffffff;fill-opacity:1;stroke:#000000;stroke-width:0;stroke-linecap:round;stroke-linejoin:round;stroke-miterlimit:5.92000008;stroke-dasharray:none;stroke-opacity:1"
         id="rect1831-8-5"
         width="10.000003"
         height="1.9999999"
         x="39.999245"
         y="122.99965" />
      <path
         inkscape:connector-curvature="0"
         id="rect1471-5"
         d="m 44.998867,-43.999876 v 1.999879 H 39.99969 V 143.00008 h 4.999693 v 1.99988 h 5.000212 v -1.99988 h 4.999697 v 1.99988 h 5.000209 v -1.99988 h 5.000212 v 1.99988 h 4.999697 v -1.99988 h 5.000209 v 1.99988 h 4.999697 v -1.99988 h 5.000212 v 1.99988 h 5.000209 v -1.99988 h 4.999696 v 1.99988 h 3.000333 v -1.99988 h 1.999877 v -5.0002 h -1.999877 v -5.00023 h 1.999877 v -4.99967 h -1.999877 v -5.00023 h 1.999877 v -4.9997 h -1.999877 v -5.0002 h 1.999877 v -5.0002 h -1.999877 v -4.9997 h 1.999877 v -5.000235 h -1.999877 v -4.99967 h 1.999877 v -5.000227 h -1.999877 v -5.0002 h 1.999877 v -4.9997 h -1.999877 v -5.0002 h 1.999877 V 68.00002 h -1.999877 v -5.000228 h 1.999877 V 58.00012 h -1.999877 v -5.000229 h 1.999877 V 47.99969 h -1.999877 v -4.999699 h 1.999877 V 37.999789 H 97.999766 V 33.00009 h 1.999877 v -5.000228 h -1.999877 v -5.000201 h 1.999877 V 17.999962 H 97.999766 V 12.99976 h 1.999877 V 8.0000614 h -1.999877 v -5.000201 h 1.999877 v -5.0002282 h -1.999877 v -4.999699 h 1.999877 v -5.0002002 h -1.999877 v -4.999699 h 1.999877 v -5.000203 h -1.999877 v -5.000228 h 1.999877 v -4.999699 h -1.999877 v -5.000202 h 1.999877 v -4.999699 H 97.99925 v -1.999879 h -3.000335 v 1.999879 h -4.999178 -5.16e-4 v -1.999879 h -5.000212 v 1.999879 h -4.999693 -5.19e-4 v -1.999879 h -4.999694 v 1.999879 h -4.999693 -5.19e-4 v -1.999879 h -4.999693 v 1.999879 h -4.999697 -5.16e-4 v -1.999879 h -5.000212 v 1.999879 h -4.999178 -5.15e-4 v -1.999879 z"
         style="fill:#808000;fill-opacity:1;stroke:#000000;stroke-width:0;stroke-linecap:round;stroke-linejoin:round;stroke-miterlimit:5.92000008;stroke-dasharray:none;stroke-opacity:1" />
      <rect
         transform="rotate(90)"
         ry="4.1426971e-005"
         rx="1"
         y="-49.999382"
         x="-11.999921"
         height="10"
         width="2"
         id="rect1640"
         style="fill:#ffffff;fill-opacity:1;stroke:#000000;stroke-width:0;stroke-miterlimit:5.92000008;stroke-dasharray:none;stroke-opacity:1" />
      <rect
         transform="rotate(90)"
         ry="4.1426971e-005"
         rx="0.96757329"
         y="-49.999382"
         x="38.00008"
         height="10"
         width="2.0000002"
         id="rect1640-8"
         style="fill:#ffffff;fill-opacity:1;stroke:#000000;stroke-width:0;stroke-miterlimit:5.92000008;stroke-dasharray:none;stroke-opacity:1" />
      <rect
         transform="rotate(90)"
         ry="4.0856207e-012"
         rx="0.99999845"
         y="-49.999382"
         x="88.000076"
         height="10"
         width="1.9999969"
         id="rect1640-8-8"
         style="fill:#ffffff;fill-opacity:1;stroke:#000000;stroke-width:0;stroke-miterlimit:5.92000008;stroke-dasharray:none;stroke-opacity:1" />
    </g>
    <path
       style="fill:#808000;fill-opacity:1;stroke:#000000;stroke-width:0;stroke-miterlimit:5.92000008;stroke-dasharray:none;stroke-opacity:1"
       d="m 110.50018,-110.99955 c -1.385,0 -2.50011,5e-4 -2.50011,5.3e-4 v 2.00038 2.99932 h 1.99988 v 1.99988 3.00033 h -1.99988 v 1.999869 2.999818 h 1.99988 v 5.000199 h -1.99988 v 1.99988 3.000348 h 1.99988 v 4.999699 h -1.99988 v 2.000382 2.99982 h 1.99988 v 4.999699 h -1.99988 v 2.000382 2.999819 h 1.99988 v 5.000228 h -1.99988 v 2.000383 2.99929 h 1.99988 v 2.999819 5.29e-4 1.999351 h 4.99969 v -1.99988 h 5.00022 v 1.99988 h 5.00021 v -1.99988 h 4.99969 v 1.99988 h 9.99991 v -1.99988 h 5.00021 v 1.99988 h 5.00021 v -1.99988 h 4.9997 v 1.99988 H 160 v -1.999351 h 1.99988 v -0.001 H 160 v -3.000348 h 1.99988 v -2.998258 -2.001415 H 160 v -2.999316 -2.000912 h 1.99988 v -2.998787 -2.001414 H 160 v -4.999699 h 1.99988 v -2.998788 -2.001414 H 160 v -4.999699 h 1.99988 v -2.999316 -2.000912 H 160 v -5.000199 h 1.99988 v -2.998788 -2.000909 H 160 v -2.99929 -2.00091 h 1.99988 v -2.99829 c 0,0 5.1e-4,0 5.1e-4,0 v -2.00038 c 0,-3e-5 -1.1151,-5.3e-4 -2.5001,-5.3e-4 z"
       id="rect1120-7"
       inkscape:connector-curvature="0" />
    <g
       id="g1591"
       transform="translate(-4.9993918,-2.0000742)">
      <rect
         y="6.9999623"
         x="219.99939"
         height="1.9999999"
         width="9.999999"
         id="rect1831-4"
         style="fill:#ffffff;fill-opacity:1;stroke:#000000;stroke-width:0;stroke-linecap:round;stroke-linejoin:round;stroke-miterlimit:5.92000008;stroke-dasharray:none;stroke-opacity:1" />
      <rect
         style="fill:#ffffff;fill-opacity:1;stroke:#000000;stroke-width:0;stroke-linecap:round;stroke-linejoin:round;stroke-miterlimit:5.92000008;stroke-dasharray:none;stroke-opacity:1"
         id="rect1831-8"
         width="10.000003"
         height="1.9999999"
         x="219.99939"
         y="108.00026" />
      <rect
         y="8.9997835"
         x="219.99939"
         height="1.9999999"
         width="9.999999"
         id="rect1831-4-3"
         style="fill:#ffffff;fill-opacity:1;stroke:#000000;stroke-width:0;stroke-linecap:round;stroke-linejoin:round;stroke-miterlimit:5.92000008;stroke-dasharray:none;stroke-opacity:1" />
      <rect
         style="fill:#ffffff;fill-opacity:1;stroke:#000000;stroke-width:0;stroke-linecap:round;stroke-linejoin:round;stroke-miterlimit:5.92000008;stroke-dasharray:none;stroke-opacity:1"
         id="rect1831-8-4"
         width="10.000003"
         height="1.9999999"
         x="219.99939"
         y="110.00008" />
      <rect
         y="83.999802"
         x="219.99951"
         height="1.9999999"
         width="10.000003"
         id="rect1831-5-5"
         style="fill:#ffffff;fill-opacity:1;stroke:#000000;stroke-width:0;stroke-linecap:round;stroke-linejoin:round;stroke-miterlimit:5.92000008;stroke-dasharray:none;stroke-opacity:1" />
      <rect
         y="32.999809"
         x="219.99953"
         height="1.9999999"
         width="9.999999"
         id="rect1831-4-1-3"
         style="fill:#ffffff;fill-opacity:1;stroke:#000000;stroke-width:0;stroke-linecap:round;stroke-linejoin:round;stroke-miterlimit:5.92000008;stroke-dasharray:none;stroke-opacity:1" />
      <rect
         transform="scale(-1,1)"
         style="fill:#ffffff;fill-opacity:1;stroke:#000000;stroke-width:0;stroke-linecap:round;stroke-linejoin:round;stroke-miterlimit:5.92000008;stroke-dasharray:none;stroke-opacity:1"
         id="rect1831-8-5-5"
         width="10.000003"
         height="1.9999999"
         x="-229.99953"
         y="133.99973" />
      <rect
         transform="matrix(0,1,1,0,0,0)"
         ry="4.1426971e-005"
         rx="1"
         y="221.99953"
         x="28.999716"
         height="9.999999"
         width="2"
         id="rect1640-3"
         style="fill:#ffffff;fill-opacity:1;stroke:#000000;stroke-width:0;stroke-miterlimit:5.92000008;stroke-dasharray:none;stroke-opacity:1" />
      <rect
         transform="matrix(0,1,1,0,0,0)"
         ry="4.1426971e-005"
         rx="1"
         y="221.99953"
         x="78.99971"
         height="9.999999"
         width="2"
         id="rect1640-8-1"
         style="fill:#ffffff;fill-opacity:1;stroke:#000000;stroke-width:0;stroke-miterlimit:5.92000008;stroke-dasharray:none;stroke-opacity:1" />
      <rect
         transform="matrix(0,1,1,0,0,0)"
         ry="4.1426971e-005"
         rx="1"
         y="221.99953"
         x="123.99971"
         height="9.999999"
         width="2"
         id="rect1640-8-8-6"
         style="fill:#ffffff;fill-opacity:1;stroke:#000000;stroke-width:0;stroke-miterlimit:5.92000008;stroke-dasharray:none;stroke-opacity:1" />
      <rect
         y="73.999733"
         x="219.99951"
         height="1.9999999"
         width="10.000003"
         id="rect1831-5-7"
         style="fill:#ffffff;fill-opacity:1;stroke:#000000;stroke-width:0;stroke-linecap:round;stroke-linejoin:round;stroke-miterlimit:5.92000008;stroke-dasharray:none;stroke-opacity:1" />
      <rect
         y="22.999739"
         x="219.99953"
         height="1.9999999"
         width="9.999999"
         id="rect1831-4-1-34"
         style="fill:#ffffff;fill-opacity:1;stroke:#000000;stroke-width:0;stroke-linecap:round;stroke-linejoin:round;stroke-miterlimit:5.92000008;stroke-dasharray:none;stroke-opacity:1" />
      <rect
         transform="scale(-1,1)"
         style="fill:#ffffff;fill-opacity:1;stroke:#000000;stroke-width:0;stroke-linecap:round;stroke-linejoin:round;stroke-miterlimit:5.92000008;stroke-dasharray:none;stroke-opacity:1"
         id="rect1831-8-5-7"
         width="10.000003"
         height="1.9999999"
         x="-229.99953"
         y="123.99965" />
      <path
         inkscape:connector-curvature="0"
         id="rect1471-5-0"
         d="m 224.99991,-42.999876 v 1.999879 h 4.99917 V 144.00008 h -4.99969 v 1.99988 h -5.00021 v -1.99988 h -4.9997 v 1.99988 h -5.00021 v -1.99988 h -5.00021 v 1.99988 h -4.9997 v -1.99988 h -5.00021 v 1.99988 h -4.99969 v -1.99988 h -5.00021 v 1.99988 h -5.00021 v -1.99988 h -4.9997 v 1.99988 h -3.00033 v -1.99988 h -1.99988 v -5.0002 h 1.99988 v -5.00023 h -1.99988 v -4.99967 h 1.99988 v -5.00023 h -1.99988 v -4.9997 h 1.99988 v -5.0002 h -1.99988 v -5.0002 h 1.99988 v -4.9997 h -1.99988 v -5.000235 h 1.99988 v -4.99967 h -1.99988 v -5.000227 h 1.99988 v -5.0002 h -1.99988 v -4.9997 h 1.99988 v -5.0002 h -1.99988 V 69.00002 h 1.99988 v -5.000228 h -1.99988 V 59.00012 h 1.99988 v -5.000229 h -1.99988 V 48.99969 h 1.99988 v -4.999699 h -1.99988 v -5.000202 h 1.99988 V 34.00009 h -1.99988 v -5.000228 h 1.99988 v -5.000201 h -1.99988 v -4.999699 h 1.99988 V 13.99976 h -1.99988 V 9.0000614 h 1.99988 v -5.000201 h -1.99988 v -5.0002282 h 1.99988 v -4.999699 h -1.99988 v -5.0002002 h 1.99988 v -4.999699 h -1.99988 v -5.000203 h 1.99988 v -5.000228 h -1.99988 v -4.999699 h 1.99988 v -5.000202 h -1.99988 v -4.999699 h 2.00039 v -1.999879 h 3.00034 v 1.999879 h 4.99918 5.1e-4 v -1.999879 h 5.00021 v 1.999879 h 4.9997 5.2e-4 v -1.999879 h 4.99969 v 1.999879 h 4.99969 5.2e-4 v -1.999879 h 4.99969 v 1.999879 h 4.9997 5.2e-4 v -1.999879 H 215 v 1.999879 h 4.99918 5.1e-4 v -1.999879 z"
         style="fill:#808000;fill-opacity:1;stroke:#000000;stroke-width:0;stroke-linecap:round;stroke-linejoin:round;stroke-miterlimit:5.92000008;stroke-dasharray:none;stroke-opacity:1" />
      <rect
         transform="matrix(0,1,1,0,0,0)"
         ry="4.1426971e-005"
         rx="1"
         y="219.99939"
         x="-11.999922"
         height="9.999999"
         width="2"
         id="rect1640-33"
         style="fill:#ffffff;fill-opacity:1;stroke:#000000;stroke-width:0;stroke-miterlimit:5.92000008;stroke-dasharray:none;stroke-opacity:1" />
      <rect
         transform="matrix(0,1,1,0,0,0)"
         ry="4.1426971e-005"
         rx="1"
         y="219.99939"
         x="38.00008"
         height="9.999999"
         width="2"
         id="rect1640-8-7"
         style="fill:#ffffff;fill-opacity:1;stroke:#000000;stroke-width:0;stroke-miterlimit:5.92000008;stroke-dasharray:none;stroke-opacity:1" />
      <rect
         transform="matrix(0,1,1,0,0,0)"
         ry="4.1426971e-005"
         rx="1"
         y="219.99939"
         x="88.000076"
         height="9.999999"
         width="2"
         id="rect1640-8-8-1"
         style="fill:#ffffff;fill-opacity:1;stroke:#000000;stroke-width:0;stroke-miterlimit:5.92000008;stroke-dasharray:none;stroke-opacity:1" />
    </g>
    <rect
       style="fill:#ffffff;fill-opacity:1;stroke:#000000;stroke-width:0;stroke-miterlimit:5.92000008;stroke-dasharray:none;stroke-opacity:1"
       id="rect1126-0"
       width="5"
       height="1.9999999"
       x="749.99994"
       y="161.99969" />
    <rect
       style="fill:#ffffff;fill-opacity:1;stroke:#000000;stroke-width:0;stroke-miterlimit:5.92000008;stroke-dasharray:none;stroke-opacity:1"
       id="rect1124-1"
       width="5"
       height="1.9999999"
       x="774.99994"
       y="161.99969" />
    <g
       id="g176">
      <path
         inkscape:connector-curvature="0"
         id="rect1051"
         d="m 355.0002,-45.000107 c 0,0 0,0.445929 0,0.99994 0,0.553693 0,0.99896 0,0.99941 -0.19762,-2.6e-5 -0.17148,0 -0.38447,0 h -2.05155 c -1.4205,0 -2.56418,5.29e-4 -2.56418,5.29e-4 v 6.930311 0.990124 2.079466 c 0,-2.7e-5 -0.44596,0 -0.99994,0 -0.55401,0 -0.99994,-2.7e-5 -0.99994,0 v 9.9999 c 0,2.7e-5 0.44593,5.3e-4 0.99994,5.3e-4 0.55398,0 0.99994,-5.03e-4 0.99994,-5.3e-4 v 10.00043 c 0,-2.6e-5 -0.44596,0 -0.99994,0 -0.55401,0 -0.99994,-2.6e-5 -0.99994,0 v 9.9999006 c 0,2.65e-5 0.44593,0 0.99994,0 0.55398,0 0.99994,2.65e-5 0.99994,0 v 9.9999005 c 0,0 -0.44596,0 -0.99994,0 -0.55401,0 -0.99994,0 -0.99994,0 v 9.9999269 c 0,0 0.44593,0 0.99994,0 0.55398,0 0.99994,0 0.99994,0 v 10.000403 c 0,0 -0.44596,-5.02e-4 -0.99994,-5.02e-4 -0.55401,0 -0.99994,5.02e-4 -0.99994,5.02e-4 v 9.999901 c 0,2.6e-5 0.44593,0 0.99994,0 0.55398,2.6e-5 0.99994,2.6e-5 0.99994,0 v 9.999927 c 0,-2.7e-5 -0.44596,0 -0.99994,0 -0.55401,0 -0.99994,-2.7e-5 -0.99994,0 v 9.9999 c 0,0 0.44593,0 0.99994,0 0.55398,0 0.99994,0 0.99994,0 v 9.999901 c 0,0 -0.44596,0 -0.99994,0 -0.55401,0 -0.99994,0 -0.99994,0 v 9.9999 c 0,2.7e-5 0.44593,0 0.99994,0 0.55398,0 0.99994,2.7e-5 0.99994,0 v 10.00043 c 0,0 -0.44596,0 -0.99994,0 -0.55401,0 -0.99994,0 -0.99994,0 v 9.9999 c 0,2.7e-5 0.44593,0 0.99994,0 0.55398,0 0.99994,2.7e-5 0.99994,0 v 9.999927 c 0,-3e-5 -0.44596,0 -0.99994,0 -0.55401,0 -0.99994,-3e-5 -0.99994,0 v 9.9999 c 0,0 0.44593,0 0.99994,0 0.55398,0 0.99994,0 0.99994,0 v 9.9999 c 0,-3e-5 -0.44596,0 -0.99994,0 -0.55401,0 -0.99994,-3e-5 -0.99994,0 v 9.9999 c 0,3e-5 0.44593,0 0.99994,0 0.55398,0 0.99994,3e-5 0.99994,0 v 13.06949 c 0,3.83961 3.20246,6.93034 7.17991,6.93034 h 225.64051 c 3.97745,0 7.17991,-3.09073 7.17991,-6.93034 v -13.06949 c 0,3e-5 0.44593,0 0.99994,0 0.55399,0 0.99994,3e-5 0.99994,0 v -9.9999 c 0,-3e-5 -0.44595,0 -0.99994,0 -0.55401,0 -0.99994,-3e-5 -0.99994,0 v -9.9999 c 0,0 0.44593,0 0.99994,0 0.55399,0 0.99994,0 0.99994,0 v -9.9999 c 0,-3e-5 -0.44595,0 -0.99994,0 -0.55401,0 -0.99994,-3e-5 -0.99994,0 v -9.999927 c 0,2.7e-5 0.44593,0 0.99994,0 0.55399,0 0.99994,2.7e-5 0.99994,0 v -9.9999 c 0,0 -0.44595,0 -0.99994,0 -0.55401,0 -0.99994,0 -0.99994,0 v -10.00043 c 0,2.7e-5 0.44593,0 0.99994,0 0.55399,0 0.99994,2.7e-5 0.99994,0 v -9.9999 c 0,0 -0.44595,0 -0.99994,0 -0.55401,0 -0.99994,0 -0.99994,0 v -9.999901 c 0,0 0.44593,0 0.99994,0 0.55399,0 0.99994,0 0.99994,0 v -9.9999 c 0,-2.7e-5 -0.44595,0 -0.99994,0 -0.55401,0 -0.99994,-2.7e-5 -0.99994,0 v -9.999927 c 0,2.6e-5 0.44593,0 0.99994,0 0.55399,2.6e-5 0.99994,2.6e-5 0.99994,0 V 26.999632 c 0,-2.7e-5 -0.44595,0 -0.99994,0 -0.55401,0 -0.99994,-2.7e-5 -0.99994,0 v -9.999901 c 0,0 0.44593,0 0.99994,0 0.55399,0 0.99994,0 0.99994,0 V 6.9998041 c 0,0 -0.44595,0 -0.99994,0 -0.55401,0 -0.99994,0 -0.99994,0 v -9.9999005 c 0,2.65e-5 0.44593,0 0.99994,0 0.55399,0 0.99994,2.65e-5 0.99994,0 v -9.9999006 c 0,-2.6e-5 -0.44595,0 -0.99994,0 -0.55401,0 -0.99994,-2.6e-5 -0.99994,0 v -10.00043 c 0,2.7e-5 0.44593,5.3e-4 0.99994,5.3e-4 0.55399,0 0.99994,-5.03e-4 0.99994,-5.3e-4 v -9.9999 c 0,-2.7e-5 -0.44595,0 -0.99994,0 -0.55401,0 -0.99994,-2.7e-5 -0.99994,0 v -3.06959 -6.930311 c 0,0 -1.14368,-5.29e-4 -2.56418,-5.29e-4 h -2.05155 c -0.21302,0 -0.18685,-2.6e-5 -0.38449,0 2e-5,-4.5e-4 0,-0.445717 0,-0.99941 0,-0.554011 2e-5,-0.99994 0,-0.99994 h -9.9999 c 0,0 0,0.445929 0,0.99994 0,0.553984 0,0.999939 0,0.999939 h -9.99991 c 0,0 0,-0.445955 0,-0.999939 0,-0.554011 0,-0.99994 0,-0.99994 h -9.9999 c -2e-5,0 0,0.445929 0,0.99994 0,0.553984 -2e-5,0.999939 0,0.999939 h -10.00043 c 3e-5,0 0,-0.445955 0,-0.999939 0,-0.554011 3e-5,-0.99994 0,-0.99994 h -9.9999 c -2e-5,0 0,0.445929 0,0.99994 0,0.553984 -2e-5,0.999939 0,0.999939 h -9.9999 c 0,0 0,-0.398039 0,-0.892466 0,-0.4944 0,-0.892439 0,-0.892439 h -9.99992 c 0,0 0,0.398039 0,0.892439 0,0.494427 0,0.892466 0,0.892466 h -9.9999 c 2e-5,0 0,-0.445955 0,-0.999939 0,-0.554011 2e-5,-0.99994 0,-0.99994 h -9.9999 c -3e-5,0 -5.3e-4,0.445929 -5.3e-4,0.99994 0,0.553984 5e-4,0.999939 5.3e-4,0.999939 h -10.00043 c 2e-5,0 0,-0.445955 0,-0.999939 0,-0.554011 2e-5,-0.99994 0,-0.99994 h -9.9999 c -3e-5,0 0,0.445929 0,0.99994 0,0.553984 -3e-5,0.999939 0,0.999939 h -9.99991 c 0,0 0,-0.445955 0,-0.999939 0,-0.554011 0,-0.99994 0,-0.99994 h -9.99992 c 0,0 0,0.445929 0,0.99994 0,0.553984 0,0.999939 0,0.999939 h -9.9999 c 2e-5,0 0,-0.445955 0,-0.999939 0,-0.554011 2e-5,-0.99994 0,-0.99994 h -10.00041 c -2e-5,0 0,0.445929 0,0.99994 0,0.553984 -2e-5,0.999939 0,0.999939 h -9.99992 c 2e-5,0 0,-0.445955 0,-0.999939 0,-0.554011 2e-5,-0.99994 0,-0.99994 h -9.9999 c 0,0 0,0.445929 0,0.99994 0,0.553984 0,0.999939 0,0.999939 h -9.9999 c 0,0 0,-0.445955 0,-0.999939 0,-0.554011 0,-0.99994 0,-0.99994 h -9.9999 c -3e-5,0 0,0.445929 0,0.99994 0,0.553984 -3e-5,0.999939 0,0.999939 h -10.00043 c 0,0 0,-0.445955 0,-0.999939 0,-0.554011 0,-0.99994 0,-0.99994 h -9.9999 c -3e-5,0 0,0.445929 0,0.99994 0,0.553984 -3e-5,0.999939 0,0.999939 h -9.99993 c 3e-5,0 0,-0.445955 0,-0.999939 0,-0.554011 3e-5,-0.99994 0,-0.99994 z"
         style="fill:#808000;fill-opacity:1;stroke:#000000;stroke-width:0;stroke-miterlimit:5.92000008;stroke-dasharray:none;stroke-opacity:1" />
      <rect
         rx="2.0000167"
         ry="2.0000167"
         y="146"
         x="354"
         height="7.9999967"
         width="232"
         id="rect1253-5"
         style="fill:#ffffff;fill-opacity:1;stroke:#000000;stroke-width:0;stroke-miterlimit:5.92000008;stroke-dasharray:none;stroke-opacity:1" />
      <rect
         transform="rotate(-90)"
         ry="2.6308182e-005"
         rx="2.5000002"
         y="390"
         x="-139"
         height="19.999996"
         width="1.9999999"
         id="rect1053-27-80"
         style="fill:#ffffff;fill-opacity:1;stroke:#000000;stroke-width:0;stroke-miterlimit:5.92000008;stroke-dasharray:none;stroke-opacity:1" />
      <rect
         transform="rotate(-90)"
         ry="2.6308182e-005"
         rx="2.5000002"
         y="460"
         x="-139"
         height="19.999996"
         width="1.9999999"
         id="rect1053-27-80-2"
         style="fill:#ffffff;fill-opacity:1;stroke:#000000;stroke-width:0;stroke-miterlimit:5.92000008;stroke-dasharray:none;stroke-opacity:1" />
      <rect
         transform="rotate(-90)"
         ry="2.6308182e-005"
         rx="2.5000002"
         y="530"
         x="-139"
         height="19.999996"
         width="1.9999999"
         id="rect1053-27-80-9"
         style="fill:#ffffff;fill-opacity:1;stroke:#000000;stroke-width:0;stroke-miterlimit:5.92000008;stroke-dasharray:none;stroke-opacity:1" />
    </g>
    <g
       id="g182"
       transform="translate(-7.0001265,-120.00058)">
      <path
         inkscape:connector-curvature="0"
         id="rect1110"
         d="m 610.00029,-44.999877 v 1.99988 c 0,0 1.11458,0 2.49957,0 1.38502,0 2.5001,0 2.5001,0 v -1.99988 c 0,-2.6e-5 -1.11508,0 -2.5001,0 -1.38499,0 -2.49957,-2.6e-5 -2.49957,0 z m 9.9999,0 v 1.99988 c 0,0 1.11511,0 2.5001,0 1.38499,0 2.4996,0 2.4996,0 v -1.99988 c 0,-2.6e-5 -1.11461,0 -2.4996,0 -1.38499,0 -2.5001,-2.6e-5 -2.5001,0 z m 9.9999,0 v 1.99988 c 0,0 1.11511,0 2.5001,0 1.38502,0 2.5001,0 2.5001,0 v -1.99988 c 0,-2.6e-5 -1.11508,0 -2.5001,0 -1.38499,0 -2.5001,-2.6e-5 -2.5001,0 z m 9.9999,0 v 1.99988 c 0,0 1.11511,0 2.5001,0 1.38502,0 2.50013,0 2.50013,0 v -1.99988 c 0,-2.6e-5 -1.11511,0 -2.50013,0 -1.38499,0 -2.5001,-2.6e-5 -2.5001,0 z m 9.9999,0 v 1.99988 c 0,0 1.11512,0 2.50013,0 1.38499,0 2.5001,0 2.5001,0 v -1.99988 c 0,-2.6e-5 -1.11511,0 -2.5001,0 -1.38501,0 -2.50013,-2.6e-5 -2.50013,0 z m 10.00043,0 v 1.99988 c 0,0 1.11459,0 2.4996,0 1.38499,0 2.5001,0 2.5001,0 v -1.99988 c 0,-2.6e-5 -1.11511,0 -2.5001,0 -1.38501,0 -2.4996,-2.6e-5 -2.4996,0 z m -55.00026,2.000382 v 6.930337 3.069564 c 0,0 0.41153,0 0.92295,0 0.51136,0 0.92294,0 0.92294,0 v 9.999927 c 0,2.6e-5 -0.41158,0 -0.92294,0 h -0.92295 v 10.000404 c 0,0 0.41153,0 0.92295,0 0.51136,0 0.92294,0 0.92294,0 v 9.9999271 c 0,2.6e-5 -0.41158,0 -0.92294,0 -0.51142,0 -0.92295,2.6e-5 -0.92295,0 v 9.9999003 h 0.92295 0.92294 v 9.9998996 h -0.92294 -0.92295 v 9.9999 c 0,-2.6e-5 0.41153,0 0.92295,0 0.51136,0 0.92294,-2.6e-5 0.92294,0 v 10.00043 c 0,2.6e-5 -0.41158,2.6e-5 -0.92294,0 -0.51142,0 -0.92295,2.6e-5 -0.92295,0 v 9.999901 c 0,-2.7e-5 0.41153,0 0.92295,0 0.51136,0 0.92294,-2.7e-5 0.92294,0 v 9.9999 h -0.92294 -0.92295 v 9.999927 h 0.92295 0.92294 v 9.999898 c 0,3e-5 -0.41158,0 -0.92294,0 -0.51142,0 -0.92295,3e-5 -0.92295,0 v 10.00043 h 0.92295 0.92294 v 9.9999 c 0,3e-5 -0.41158,0 -0.92294,0 -0.51142,0 -0.92295,3e-5 -0.92295,0 v 9.9999 c 0,-2e-5 0.41153,0 0.92295,0 0.51136,0 0.92294,-2e-5 0.92294,0 v 9.9999 h -0.92294 -0.92295 v 9.99993 c 0,-3e-5 0.41153,0 0.92295,0 0.51136,0 0.92294,-3e-5 0.92294,0 v 9.9999 c 0,3e-5 -0.41158,0 -0.92294,0 -0.51142,0 -0.92295,3e-5 -0.92295,0 v 5.0002 h 2.30735 2.69288 v 1.99938 c 0,0 1.11458,0 2.49957,0 1.38502,0 2.5001,0 2.5001,0 v -1.99938 h 5.00023 v 1.99938 c 0,0 1.11511,0 2.5001,0 1.38499,0 2.4996,0 2.4996,0 v -1.99938 h 5.0002 v 1.99938 c 0,0 1.11511,0 2.5001,0 1.38502,0 2.5001,0 2.5001,0 v -1.99938 h 4.9997 v 1.99938 c 0,0 1.11511,0 2.5001,0 1.38502,0 2.50013,0 2.50013,0 v -1.99938 h 4.99967 v 1.99938 c 0,0 1.11512,0 2.50013,0 1.38499,0 2.5001,0 2.5001,0 v -1.99938 h 5.0002 v 1.99938 c 0,0 1.11459,0 2.4996,0 1.38499,0 2.5001,0 2.5001,0 v -1.99988 -184.999575 c 0,-2.6e-5 -1.02888,0 -2.30735,0 h -55.38526 c -1.27846,0 -2.30735,-2.6e-5 -2.30735,0 z"
         style="fill:#808000;fill-opacity:1;stroke:#000000;stroke-width:0;stroke-miterlimit:5.92000008;stroke-dasharray:none;stroke-opacity:1" />
      <rect
         ry="2.6308184e-005"
         rx="2.5000002"
         y="-13.999998"
         x="655"
         height="2.0000012"
         width="9.9999962"
         id="rect1254"
         style="fill:#ffffff;fill-opacity:1;stroke:#000000;stroke-width:0;stroke-miterlimit:5.92000008;stroke-dasharray:none;stroke-opacity:1" />
      <rect
         ry="2.6308184e-005"
         rx="2.5000002"
         y="36.000004"
         x="655"
         height="2.0000012"
         width="9.9999962"
         id="rect1254-7"
         style="fill:#ffffff;fill-opacity:1;stroke:#000000;stroke-width:0;stroke-miterlimit:5.92000008;stroke-dasharray:none;stroke-opacity:1" />
      <rect
         ry="2.6308184e-005"
         rx="2.5000002"
         y="86"
         x="655"
         height="2.0000012"
         width="9.9999962"
         id="rect1254-7-1"
         style="fill:#ffffff;fill-opacity:1;stroke:#000000;stroke-width:0;stroke-miterlimit:5.92000008;stroke-dasharray:none;stroke-opacity:1" />
    </g>
    <path
       inkscape:connector-curvature="0"
       style="fill:#808000;fill-opacity:1;stroke:#000000;stroke-width:0;stroke-miterlimit:5.92000008;stroke-dasharray:none;stroke-opacity:1"
       d="m 592.00031,-102.99978 h -1.99938 c 0,0 0,-1.11459 0,-2.4996 0,-1.38502 0,-2.5001 0,-2.5001 0,0 0,0 0,0 v 59.999453 h 0.99994 0.99994 v -4.9997 h -1.99937 c 0,0 0,-1.11461 0,-2.49959 0,-1.38502 0,-2.50011 0,-2.50011 h 1.99937 v -5.00022 h -1.99937 c 0,0 0,-1.11512 0,-2.5001 0,-1.38499 0,-2.49958 0,-2.49958 h 1.99937 v -5.00022 h -1.99937 c 0,0 0,-1.11512 0,-2.50011 0,-1.38501 0,-2.5001 0,-2.5001 h 1.99937 v -4.99969 h -1.99937 c 0,0 0,-1.11512 0,-2.5001 0,-1.38502 0,-2.50011 0,-2.50011 h 1.99937 v -4.99969 h -1.99937 c 0,0 0,-1.11512 0,-2.5001 0,-1.38499 0,-2.50013 0,-2.50013 h 1.99937 z m -2.00091,-5.00021 c 0,-2e-5 -0.44612,0 -0.99994,0 -0.55382,0 -0.99943,-2e-5 -0.99943,0 h -0.50022 -234.99901 -0.50022 c 0,-2e-5 -0.44606,0 -0.99994,0 -0.55388,0 -0.99994,-2e-5 -0.99994,0 0,-2e-5 -0.42712,0 -0.95754,0 h -0.0848 c -0.53043,0 -0.95755,-2e-5 -0.95755,0 v 0 h 1.99987 c 3e-5,0 0,1.11461 0,2.4996 0,1.38502 3e-5,2.5001 0,2.5001 h -1.99987 v 4.999703 h 1.99987 c 3e-5,0 0,1.11512 0,2.5001 0,1.38502 3e-5,2.50063 0,2.50063 h -1.99987 v 4.99917 h 1.99987 c 3e-5,0 0,1.11562 0,2.50063 0,1.38499 3e-5,2.5001 0,2.5001 h -1.99987 v 4.9997 0 h 1.99934 c 3e-5,0 0,1.11509 0,2.5001 0,1.38499 3e-5,2.4996 0,2.4996 h -1.99934 v 5.0002 h 1.99934 c 3e-5,0 0,1.11461 0,2.4996 0,1.38499 3e-5,2.5001 0,2.5001 h -1.99934 v 5.00073 h 1.99934 c 3e-5,0 0,1.11509 0,2.5001 0,1.38499 3e-5,2.49907 0,2.49907 h -1.99934 v 5.00023 h 0.95755 0.0847 0.95754 v 0 h 2.56368 2.05155 c 0.21299,0 0.18685,-3e-5 0.38446,0 v -0.99941 -0.99994 h 9.9999 c 3e-5,0 0,0.44593 0,0.99994 0,0.55396 3e-5,0.99994 0,0.99994 h 9.99988 c -3e-5,0 0,-0.44598 0,-0.99994 0,-0.55401 -3e-5,-0.99994 0,-0.99994 h 9.99987 v 0.99994 0.99994 h 10.00041 c -5e-5,0 0,-0.44598 0,-0.99994 0,-0.55401 -5e-5,-0.99994 0,-0.99994 h 9.99987 v 0.99994 0.99994 h 9.99988 v -0.99994 -0.99994 h 9.99937 c 3e-5,0 0,0.44593 0,0.99994 0,0.55396 3e-5,0.99994 0,0.99994 h 9.99988 c -5e-5,0 0,-0.44598 0,-0.99994 0,-0.55401 -5e-5,-0.99994 0,-0.99994 h 10.0004 c 3e-5,0 0,0.44593 0,0.99994 0,0.55396 3e-5,0.99994 0,0.99994 h 9.99988 v -0.99994 -0.99994 h 9.99987 v 0.99994 0.99994 h 9.99987 c -2e-5,0 0,-0.44598 0,-0.99994 0,-0.55401 -2e-5,-0.99994 0,-0.99994 h 9.99991 c 0,0 0,0.44593 0,0.99994 0,0.55396 0,0.99994 0,0.99994 h 10.00037 c -8e-5,0 0,-0.44598 0,-0.99994 v -0.99994 h 9.99991 c 0,0 0,0.44593 0,0.99994 0,0.55396 0,0.99994 0,0.99994 h 9.99987 v -0.89247 -0.89244 h 9.99988 v 0.89244 0.89247 h 9.99987 c -8e-5,0 0,-0.44598 0,-0.99994 0,-0.55401 -8e-5,-0.99994 0,-0.99994 h 9.99991 c 0,0 0,0.44593 0,0.99994 0,0.55396 0,0.99994 0,0.99994 h 10.00037 c -2e-5,0 0,-0.44598 0,-0.99994 0,-0.55401 -2e-5,-0.99994 0,-0.99994 h 9.99987 v 0.99994 0.99994 h 9.99991 v -0.99994 -0.99994 h 9.99987 c 5e-5,0 0,0.44593 0,0.99994 0,0.55367 5e-5,0.99896 0,0.99941 0.19767,-3e-5 0.1715,0 0.38447,0 h 2.05155 0.5643 1.99937 v -4.9997 -4.9997 -5.0002 -4.9997 -5.0002 -5.00023 -4.99967 -5.00023 -4.9997 -5.0002 -5.000203 z"
       id="rect1199" />
    <g
       id="g169"
       transform="rotate(180,464.92303,84.499926)">
      <path
         inkscape:connector-curvature="0"
         id="rect1110-2"
         d="m 326.84566,-45.00061 v 1.99988 c 0,0 -1.11458,0 -2.49957,0 -1.38502,0 -2.5001,0 -2.5001,0 v -1.99988 c 0,-2.6e-5 1.11508,0 2.5001,0 1.38499,0 2.49957,-2.6e-5 2.49957,0 z m -9.9999,0 v 1.99988 c 0,0 -1.11511,0 -2.5001,0 -1.38499,0 -2.4996,0 -2.4996,0 v -1.99988 c 0,-2.6e-5 1.11461,0 2.4996,0 1.38499,0 2.5001,-2.6e-5 2.5001,0 z m -9.9999,0 v 1.99988 c 0,0 -1.11511,0 -2.5001,0 -1.38502,0 -2.5001,0 -2.5001,0 v -1.99988 c 0,-2.6e-5 1.11508,0 2.5001,0 1.38499,0 2.5001,-2.6e-5 2.5001,0 z m -9.9999,0 v 1.99988 c 0,0 -1.11511,0 -2.5001,0 -1.38502,0 -2.50013,0 -2.50013,0 v -1.99988 c 0,-2.6e-5 1.11511,0 2.50013,0 1.38499,0 2.5001,-2.6e-5 2.5001,0 z m -9.9999,0 v 1.99988 c 0,0 -1.11512,0 -2.50013,0 -1.38499,0 -2.5001,0 -2.5001,0 v -1.99988 c 0,-2.6e-5 1.11511,0 2.5001,0 1.38501,0 2.50013,-2.6e-5 2.50013,0 z m -10.00043,0 v 1.99988 c 0,0 -1.11459,0 -2.4996,0 -1.38499,0 -2.5001,0 -2.5001,0 v -1.99988 c 0,-2.6e-5 1.11511,0 2.5001,0 1.38501,0 2.4996,-2.6e-5 2.4996,0 z m 55.00026,2.000382 v 6.930337 3.069564 c 0,0 -0.41153,0 -0.92295,0 -0.51136,0 -0.92294,0 -0.92294,0 v 9.999927 c 0,2.6e-5 0.41158,0 0.92294,0 h 0.92295 v 10.000403 c 0,0 -0.41153,0 -0.92295,0 -0.51136,0 -0.92294,0 -0.92294,0 v 9.9999273 c 0,2.6e-5 0.41158,0 0.92294,0 0.51142,0 0.92295,2.6e-5 0.92295,0 V 6.9998307 H 330.92294 330 v 9.9999003 h 0.92294 0.92295 v 9.9999 c 0,-2.6e-5 -0.41153,0 -0.92295,0 -0.51136,0 -0.92294,-2.6e-5 -0.92294,0 v 10.00043 c 0,2.6e-5 0.41158,2.6e-5 0.92294,0 0.51142,0 0.92295,2.6e-5 0.92295,0 v 9.999901 c 0,-2.7e-5 -0.41153,0 -0.92295,0 -0.51136,0 -0.92294,-2.7e-5 -0.92294,0 v 9.9999 h 0.92294 0.92295 v 9.999926 H 330.92294 330 v 9.999898 c 0,3e-5 0.41158,0 0.92294,0 0.51142,0 0.92295,3e-5 0.92295,0 v 10.00043 H 330.92294 330 v 9.999902 c 0,3e-5 0.41158,0 0.92294,0 0.51142,0 0.92295,3e-5 0.92295,0 v 9.999902 c 0,-2e-5 -0.41153,0 -0.92295,0 -0.51136,0 -0.92294,-2e-5 -0.92294,0 v 9.9999 h 0.92294 0.92295 v 9.99993 c 0,-3e-5 -0.41153,0 -0.92295,0 -0.51136,0 -0.92294,-3e-5 -0.92294,0 v 9.9999 c 0,3e-5 0.41158,0 0.92294,0 0.51142,0 0.92295,3e-5 0.92295,0 v 5.0002 h -2.30735 -2.69288 v 1.99938 c 0,0 -1.11458,0 -2.49957,0 -1.38502,0 -2.5001,0 -2.5001,0 v -1.99938 h -5.00023 v 1.99938 c 0,0 -1.11511,0 -2.5001,0 -1.38499,0 -2.4996,0 -2.4996,0 v -1.99938 h -5.0002 v 1.99938 c 0,0 -1.11511,0 -2.5001,0 -1.38502,0 -2.5001,0 -2.5001,0 v -1.99938 h -4.9997 v 1.99938 c 0,0 -1.11511,0 -2.5001,0 -1.38502,0 -2.50013,0 -2.50013,0 v -1.99938 h -4.99967 v 1.99938 c 0,0 -1.11512,0 -2.50013,0 -1.38499,0 -2.5001,0 -2.5001,0 v -1.99938 h -5.0002 v 1.99938 c 0,0 -1.11459,0 -2.4996,0 -1.38499,0 -2.5001,0 -2.5001,0 v -1.99988 -184.999578 c 0,-2.6e-5 1.02888,0 2.30735,0 h 55.38526 c 1.27846,0 2.30735,-2.6e-5 2.30735,0 z"
         style="fill:#808000;fill-opacity:1;stroke:#000000;stroke-width:0;stroke-miterlimit:5.92000008;stroke-dasharray:none;stroke-opacity:1" />
      <rect
         transform="scale(-1,1)"
         ry="2.6308184e-005"
         rx="2.5000002"
         y="-13.999997"
         x="-282"
         height="2.0000012"
         width="9.9999962"
         id="rect1254-0"
         style="fill:#ffffff;fill-opacity:1;stroke:#000000;stroke-width:0;stroke-miterlimit:5.92000008;stroke-dasharray:none;stroke-opacity:1" />
      <rect
         transform="scale(-1,1)"
         ry="2.6308184e-005"
         rx="2.5000002"
         y="36.000004"
         x="-282"
         height="2.0000012"
         width="9.9999962"
         id="rect1254-7-9"
         style="fill:#ffffff;fill-opacity:1;stroke:#000000;stroke-width:0;stroke-miterlimit:5.92000008;stroke-dasharray:none;stroke-opacity:1" />
      <rect
         transform="scale(-1,1)"
         ry="2.6308184e-005"
         rx="2.5000002"
         y="86"
         x="-282"
         height="2.0000012"
         width="9.9999962"
         id="rect1254-7-1-7"
         style="fill:#ffffff;fill-opacity:1;stroke:#000000;stroke-width:0;stroke-miterlimit:5.92000008;stroke-dasharray:none;stroke-opacity:1" />
    </g>
    <path
       style="fill:#808000;fill-opacity:1;stroke:#000000;stroke-width:0;stroke-miterlimit:5.92000008;stroke-dasharray:none;stroke-opacity:1"
       d="M 347.99978,-172.9999 V -163 c 0,3e-5 0.44593,0 0.99994,0 0.55398,0 0.99994,3e-5 0.99994,0 v 50.00006 c 0,0 1.11511,0 2.5001,0 h 235.00013 c 1.38499,0 2.5001,0 2.5001,0 V -163 c 0,3e-5 0.44593,0 0.99994,0 0.55399,0 0.99994,3e-5 0.99994,0 v -9.9999 c 0,-2e-5 -0.44595,0 -0.99994,0 -0.55401,0 -0.99994,-2e-5 -0.99994,0 0,-2e-5 -1.11511,0 -2.5001,0 H 352.49976 c -1.38499,0 -2.5001,-2e-5 -2.5001,0 0,-2e-5 -0.44596,0 -0.99994,0 -0.55401,0 -0.99994,-2e-5 -0.99994,0 z"
       id="rect1459"
       inkscape:connector-curvature="0" />
    <path
       inkscape:connector-curvature="0"
       style="fill:#808000;fill-opacity:1;stroke:#000000;stroke-width:0;stroke-miterlimit:5.92000008;stroke-dasharray:none;stroke-opacity:1"
       d="m 390.00011,160.00065 c 0,0 0,0.44593 0,0.99994 0,0.55369 0,0.99896 0,0.99941 h -5.0002 v 0 h -9.9999 v 0 h -9.99993 v 0 h -9.9999 v 0 h -4.9997 v 3.00085 4.9997 5.0002 4.9997 5.0002 5.00023 4.9997 5.0002 4.9997 5.0002 5.00023 4.99967 c 0,3e-5 0.44612,0 0.99994,0 0.55383,0 0.99941,3e-5 0.99941,0 h 0.50022 234.99911 0.50022 c 0,3e-5 0.44606,0 0.99994,0 0.55388,0 0.99994,3e-5 0.99994,0 -2e-5,0 0,-1.11458 0,-2.49957 0,-1.38501 -2e-5,-2.5001 0,-2.5001 h 1.99988 v -4.9997 h -1.99988 c -2e-5,0 0,-1.11511 0,-2.5001 0,-1.38504 -2e-5,-2.50063 0,-2.50063 h 1.99988 v -4.99917 h -1.99988 c -2e-5,0 0,-1.11561 0,-2.50063 0,-1.38499 -2e-5,-2.5001 0,-2.5001 h 1.99988 v -4.9997 h -1.99935 c -2e-5,0 0,-1.11511 0,-2.5001 0,-1.38499 -2e-5,-2.4996 0,-2.4996 h 1.99935 v -5.0002 h -1.99935 c -2e-5,0 0,-1.11461 0,-2.4996 0,-1.38501 -2e-5,-2.5001 0,-2.5001 h 1.99935 v -5.00073 h -1.99935 c -2e-5,0 0,-1.11511 0,-2.5001 0,-1.38499 -2e-5,-2.4991 0,-2.4991 h 1.99935 v -5.0002 0 V 162 h -6.99907 v 0 h -9.9999 v 0 h -9.99991 v 0 h -9.9999 v 0 h -4.99919 c 2e-5,0 0,-0.44572 0,-0.99941 0,-0.55401 2e-5,-0.99994 0,-0.99994 h -19.9998 c -3e-5,0 0,0.44593 0,0.99994 0,0.55369 -3e-5,0.99896 0,0.99941 h -5.00174 v 0 h -9.9994 v 0 h -9.9999 v 0 H 494.9999 v 0 H 485 v 0 h -4.9997 c 3e-5,0 0,-0.44595 0,-0.99994 0,-0.55401 3e-5,-0.99994 0,-0.99994 h -20.00033 c 0,0 0,0.44593 0,0.99994 0,0.55399 0,0.99994 0,0.99994 h -4.9997 v 0 h -10.0004 v 0 h -9.9999 v 0 h -25.00003 c 0,0 0,-0.44572 0,-0.99941 0,-0.55401 0,-0.99994 0,-0.99994 z M 347.99854,162 v 3.00032 h 1.99938 v 2.4996 2.5001 h -1.99938 v 5.00023 h 1.99938 v 2.5001 2.4996 h -1.99938 v 5.0002 h 1.99938 v 2.5001 2.5001 h -1.99938 v 4.9997 h 1.99938 v 2.5001 2.5001 h -1.99938 v 4.9997 h 1.99938 v 2.5001 2.50013 h -1.99938 v 5.0002 h 1.99935 V 162 Z"
       id="rect1053-27-80-7" />
  </g>
</svg>
