<?xml version="1.0" encoding="UTF-8" standalone="no"?>
<!-- Created with Inkscape (http://www.inkscape.org/) -->

<svg
   xmlns:dc="http://purl.org/dc/elements/1.1/"
   xmlns:cc="http://creativecommons.org/ns#"
   xmlns:rdf="http://www.w3.org/1999/02/22-rdf-syntax-ns#"
   xmlns:svg="http://www.w3.org/2000/svg"
   xmlns="http://www.w3.org/2000/svg"
   xmlns:sodipodi="http://sodipodi.sourceforge.net/DTD/sodipodi-0.dtd"
   xmlns:inkscape="http://www.inkscape.org/namespaces/inkscape"
   width="1000mm"
   height="1000mm"
   viewBox="0 0 1000 1000"
   version="1.1"
   id="svg1606"
   inkscape:version="0.92.3 (2405546, 2018-03-11)"
   sodipodi:docname="parts-box.svg">
  <defs
     id="defs1600" />
  <sodipodi:namedview
     id="base"
     pagecolor="#ffffff"
     bordercolor="#666666"
     borderopacity="1.0"
     inkscape:pageopacity="0.0"
     inkscape:pageshadow="2"
     inkscape:zoom="0.67954657"
     inkscape:cx="367.07797"
     inkscape:cy="3499.2116"
     inkscape:document-units="mm"
     inkscape:current-layer="layer1"
     showgrid="true"
     fit-margin-top="0"
     fit-margin-left="0"
     fit-margin-right="0"
     fit-margin-bottom="0"
     inkscape:window-width="1920"
     inkscape:window-height="1017"
     inkscape:window-x="-8"
     inkscape:window-y="-8"
     inkscape:window-maximized="1"
     showguides="true"
     inkscape:pagecheckerboard="false"
     inkscape:measure-start="37.7953,4365.35"
     inkscape:measure-end="37.7953,4214.17">
    <inkscape:grid
       type="xygrid"
       id="grid2161"
       units="mm"
       spacingx="0.99999999"
       spacingy="0.99999999"
       empspacing="5"
       empcolor="#3f3f10"
       empopacity="0.25098039"
       color="#3fe59a"
       opacity="0.1254902"
       dotted="false" />
  </sodipodi:namedview>
  <metadata
     id="metadata1603">
    <rdf:RDF>
      <cc:Work
         rdf:about="">
        <dc:format>image/svg+xml</dc:format>
        <dc:type
           rdf:resource="http://purl.org/dc/dcmitype/StillImage" />
        <dc:title></dc:title>
      </cc:Work>
    </rdf:RDF>
  </metadata>
  <g
     inkscape:label="Layer 1"
     inkscape:groupmode="layer"
     id="layer1"
     transform="translate(0,703)">
    <path
       style="fill:#008000;fill-opacity:1;stroke:#ff0000;stroke-width:0.03779395;stroke-miterlimit:5.92000008;stroke-dasharray:none;stroke-opacity:1"
       d="M 0 0 L 0 56.693359 L -18.84375 56.693359 L -18.84375 132.23047 L 0 132.23047 L 0 245.72266 L -18.84375 245.72266 L -18.84375 321.25977 L 0 321.25977 L 0 434.69922 L -18.84375 434.69922 L -18.84375 510.23633 L 0 510.23633 L 0 623.62109 L -18.84375 623.62109 L -18.84375 699.16016 L 0 699.16016 L 0 755.86719 L 1889.7266 755.86719 L 1889.7266 699.21289 L 1908.6074 699.21289 L 1908.6074 623.67578 L 1889.7266 623.67578 L 1889.7266 510.28906 L 1908.6074 510.28906 L 1908.6074 434.75195 L 1889.7266 434.75195 L 1889.7266 321.3125 L 1908.6074 321.3125 L 1908.6074 245.77539 L 1889.7266 245.77539 L 1889.7266 132.2832 L 1908.6074 132.2832 L 1908.6074 56.746094 L 1889.7266 56.746094 L 1889.7266 0 L 0 0 z "
       transform="matrix(0.26458333,0,0,0.26458333,0,-703)"
       id="rect2163" />
  </g>
</svg>
