<?xml version="1.0" encoding="UTF-8" standalone="no"?>
<!-- Created with Inkscape (http://www.inkscape.org/) -->

<svg
   xmlns:dc="http://purl.org/dc/elements/1.1/"
   xmlns:cc="http://creativecommons.org/ns#"
   xmlns:rdf="http://www.w3.org/1999/02/22-rdf-syntax-ns#"
   xmlns:svg="http://www.w3.org/2000/svg"
   xmlns="http://www.w3.org/2000/svg"
   xmlns:sodipodi="http://sodipodi.sourceforge.net/DTD/sodipodi-0.dtd"
   xmlns:inkscape="http://www.inkscape.org/namespaces/inkscape"
   width="1030.0708mm"
   height="846.44897mm"
   viewBox="0 0 1030.0708 846.44897"
   version="1.1"
   id="svg1606"
   inkscape:version="0.92.3 (2405546, 2018-03-11)"
   sodipodi:docname="parts-box.svg">
  <defs
     id="defs1600">
    <marker
       style="overflow:visible"
       refY="0"
       refX="0"
       orient="auto"
       inkscape:stockid="Arrow2Send"
       inkscape:isstock="true"
       id="marker1467">
      <path
         inkscape:connector-curvature="0"
         transform="matrix(-0.3,0,0,-0.3,0.69,0)"
         style="fill:#000000;fill-opacity:1;stroke:#000000;stroke-opacity:1"
         id="path1465"
         d="M 8.72,4.03 -2.21,0.02 8.72,-4 c -1.75,2.37 -1.74,5.62 0,8.03 z" />
    </marker>
    <marker
       style="overflow:visible"
       refY="0"
       refX="0"
       orient="auto"
       inkscape:stockid="Arrow2Sstart"
       inkscape:isstock="true"
       id="marker1367">
      <path
         inkscape:connector-curvature="0"
         transform="matrix(0.3,0,0,0.3,-0.69,0)"
         style="fill:#000000;fill-opacity:1;stroke:#000000;stroke-opacity:1"
         id="path1365"
         d="M 8.72,4.03 -2.21,0.02 8.72,-4 c -1.75,2.37 -1.74,5.62 0,8.03 z" />
    </marker>
    <marker
       style="overflow:visible"
       refY="0"
       refX="0"
       orient="auto"
       inkscape:stockid="Arrow2Send"
       inkscape:isstock="true"
       id="marker1948">
      <path
         inkscape:connector-curvature="0"
         transform="matrix(-0.3,0,0,-0.3,0.69,0)"
         style="fill:#000000;fill-opacity:1;stroke:#000000;stroke-opacity:1"
         id="path1946"
         d="M 8.72,4.03 -2.21,0.02 8.72,-4 c -1.75,2.37 -1.74,5.62 0,8.03 z" />
    </marker>
    <marker
       style="overflow:visible"
       refY="0"
       refX="0"
       orient="auto"
       inkscape:stockid="Arrow2Sstart"
       inkscape:isstock="true"
       id="marker1860">
      <path
         inkscape:connector-curvature="0"
         transform="matrix(0.3,0,0,0.3,-0.69,0)"
         style="fill:#000000;fill-opacity:1;stroke:#000000;stroke-opacity:1"
         id="path1858"
         d="M 8.72,4.03 -2.21,0.02 8.72,-4 c -1.75,2.37 -1.74,5.62 0,8.03 z" />
    </marker>
    <marker
       style="overflow:visible"
       refY="0"
       refX="0"
       orient="auto"
       inkscape:stockid="Arrow2Send"
       inkscape:isstock="true"
       id="marker1735">
      <path
         inkscape:connector-curvature="0"
         transform="matrix(-0.3,0,0,-0.3,0.69,0)"
         style="fill:#000000;fill-opacity:1;stroke:#000000;stroke-opacity:1"
         id="path1733"
         d="M 8.72,4.03 -2.21,0.02 8.72,-4 c -1.75,2.37 -1.74,5.62 0,8.03 z" />
    </marker>
    <marker
       style="overflow:visible"
       refY="0"
       refX="0"
       orient="auto"
       inkscape:stockid="Arrow2Sstart"
       inkscape:isstock="true"
       id="marker1659">
      <path
         inkscape:connector-curvature="0"
         transform="matrix(0.3,0,0,0.3,-0.69,0)"
         style="fill:#000000;fill-opacity:1;stroke:#000000;stroke-opacity:1"
         id="path1657"
         d="M 8.72,4.03 -2.21,0.02 8.72,-4 c -1.75,2.37 -1.74,5.62 0,8.03 z" />
    </marker>
    <inkscape:perspective
       sodipodi:type="inkscape:persp3d"
       inkscape:vp_x="0 : 550.00002 : 1"
       inkscape:vp_y="0 : 1000 : 0"
       inkscape:vp_z="1100 : 550.00002 : 1"
       inkscape:persp3d-origin="550.00003 : 366.66668 : 1"
       id="perspective1232" />
    <marker
       style="overflow:visible"
       refY="0"
       refX="0"
       orient="auto"
       inkscape:stockid="Arrow2Send"
       inkscape:isstock="true"
       id="marker5864">
      <path
         inkscape:connector-curvature="0"
         transform="matrix(-0.3,0,0,-0.3,0.69,0)"
         style="fill:#000000;fill-opacity:1;stroke:#000000;stroke-opacity:1"
         id="path5862"
         d="M 8.72,4.03 -2.21,0.02 8.72,-4 c -1.75,2.37 -1.74,5.62 0,8.03 z" />
    </marker>
    <marker
       style="overflow:visible"
       refY="0"
       refX="0"
       orient="auto"
       inkscape:stockid="Arrow2Sstart"
       inkscape:isstock="true"
       id="marker5812">
      <path
         inkscape:connector-curvature="0"
         transform="matrix(0.3,0,0,0.3,-0.69,0)"
         style="fill:#000000;fill-opacity:1;stroke:#000000;stroke-opacity:1"
         id="path5810"
         d="M 8.72,4.03 -2.21,0.02 8.72,-4 c -1.75,2.37 -1.74,5.62 0,8.03 z" />
    </marker>
    <marker
       style="overflow:visible"
       refY="0"
       refX="0"
       orient="auto"
       inkscape:stockid="Arrow2Send"
       inkscape:isstock="true"
       id="marker5776">
      <path
         inkscape:connector-curvature="0"
         transform="matrix(-0.3,0,0,-0.3,0.69,0)"
         style="fill:#000000;fill-opacity:1;stroke:#000000;stroke-opacity:1"
         id="path5774"
         d="M 8.72,4.03 -2.21,0.02 8.72,-4 c -1.75,2.37 -1.74,5.62 0,8.03 z" />
    </marker>
    <marker
       style="overflow:visible"
       refY="0"
       refX="0"
       orient="auto"
       inkscape:stockid="Arrow2Sstart"
       inkscape:isstock="true"
       id="marker5616">
      <path
         inkscape:connector-curvature="0"
         transform="matrix(0.3,0,0,0.3,-0.69,0)"
         style="fill:#000000;fill-opacity:1;stroke:#000000;stroke-opacity:1"
         id="path5614"
         d="M 8.72,4.03 -2.21,0.02 8.72,-4 c -1.75,2.37 -1.74,5.62 0,8.03 z" />
    </marker>
    <marker
       id="Arrow2Sstart-1"
       inkscape:isstock="true"
       inkscape:stockid="Arrow2Sstart"
       orient="auto"
       refX="0"
       refY="0"
       style="overflow:visible">
      <path
         d="M 8.72,4.03 -2.21,0.02 8.72,-4 c -1.75,2.37 -1.74,5.62 0,8.03 z"
         id="Arrow2SstartPath-5"
         style="fill:#ff0000;fill-opacity:1;stroke:#ff0000;stroke-opacity:1"
         transform="matrix(0.3,0,0,0.3,-0.69,0)"
         inkscape:connector-curvature="0" />
    </marker>
    <marker
       id="Arrow2Send-9"
       inkscape:isstock="true"
       inkscape:stockid="Arrow2Send"
       orient="auto"
       refX="0"
       refY="0"
       style="overflow:visible">
      <path
         d="M 8.72,4.03 -2.21,0.02 8.72,-4 c -1.75,2.37 -1.74,5.62 0,8.03 z"
         id="Arrow2SendPath-1"
         style="fill:#ff0000;fill-opacity:1;stroke:#ff0000;stroke-opacity:1"
         transform="matrix(-0.3,0,0,-0.3,0.69,0)"
         inkscape:connector-curvature="0" />
    </marker>
    <marker
       style="overflow:visible"
       refY="0"
       refX="0"
       orient="auto"
       inkscape:stockid="Arrow2Sstart"
       inkscape:isstock="true"
       id="marker5812-6">
      <path
         inkscape:connector-curvature="0"
         transform="matrix(0.3,0,0,0.3,-0.69,0)"
         style="fill:#ff0000;fill-opacity:1;stroke:#ff0000;stroke-opacity:1"
         id="path5810-6"
         d="M 8.72,4.03 -2.21,0.02 8.72,-4 c -1.75,2.37 -1.74,5.62 0,8.03 z" />
    </marker>
    <marker
       style="overflow:visible"
       refY="0"
       refX="0"
       orient="auto"
       inkscape:stockid="Arrow2Send"
       inkscape:isstock="true"
       id="marker5864-3">
      <path
         inkscape:connector-curvature="0"
         transform="matrix(-0.3,0,0,-0.3,0.69,0)"
         style="fill:#ff0000;fill-opacity:1;stroke:#ff0000;stroke-opacity:1"
         id="path5862-8"
         d="M 8.72,4.03 -2.21,0.02 8.72,-4 c -1.75,2.37 -1.74,5.62 0,8.03 z" />
    </marker>
    <marker
       id="Arrow2Sstart"
       inkscape:isstock="true"
       inkscape:stockid="Arrow2Sstart"
       orient="auto"
       refX="0"
       refY="0"
       style="overflow:visible">
      <path
         d="M 8.72,4.03 -2.21,0.02 8.72,-4 c -1.75,2.37 -1.74,5.62 0,8.03 z"
         id="Arrow2SstartPath"
         style="fill:#000000;fill-opacity:1;stroke:#000000;stroke-opacity:1"
         transform="matrix(0.3,0,0,0.3,-0.69,0)"
         inkscape:connector-curvature="0" />
    </marker>
    <marker
       id="Arrow2Send"
       inkscape:isstock="true"
       inkscape:stockid="Arrow2Send"
       orient="auto"
       refX="0"
       refY="0"
       style="overflow:visible">
      <path
         d="M 8.72,4.03 -2.21,0.02 8.72,-4 c -1.75,2.37 -1.74,5.62 0,8.03 z"
         id="Arrow2SendPath"
         style="fill:#000000;fill-opacity:1;stroke:#000000;stroke-opacity:1"
         transform="matrix(-0.3,0,0,-0.3,0.69,0)"
         inkscape:connector-curvature="0" />
    </marker>
  </defs>
  <sodipodi:namedview
     id="base"
     pagecolor="#ffffff"
     bordercolor="#666666"
     borderopacity="1.0"
     inkscape:pageopacity="0.0"
     inkscape:pageshadow="2"
     inkscape:zoom="1.68"
     inkscape:cx="3462.8346"
     inkscape:cy="2873.0385"
     inkscape:document-units="mm"
     inkscape:current-layer="g3056"
     showgrid="true"
     fit-margin-top="10"
     fit-margin-left="10"
     fit-margin-right="10"
     fit-margin-bottom="10"
     inkscape:window-width="1920"
     inkscape:window-height="1017"
     inkscape:window-x="-8"
     inkscape:window-y="-8"
     inkscape:window-maximized="1"
     showguides="true"
     inkscape:pagecheckerboard="false"
     inkscape:measure-start="3458.37,2778.14"
     inkscape:measure-end="3458.37,3004.92"
     objecttolerance="10000"
     guidetolerance="10000">
    <inkscape:grid
       type="xygrid"
       id="grid2161"
       units="mm"
       spacingx="0.99999999"
       spacingy="0.99999999"
       empspacing="5"
       empcolor="#3f3f10"
       empopacity="0.25098039"
       color="#3fe59a"
       opacity="0.1254902"
       dotted="false"
       originx="-44.97413"
       originy="-239.94946" />
  </sodipodi:namedview>
  <metadata
     id="metadata1603">
    <rdf:RDF>
      <cc:Work
         rdf:about="">
        <dc:format>image/svg+xml</dc:format>
        <dc:type
           rdf:resource="http://purl.org/dc/dcmitype/StillImage" />
        <dc:title></dc:title>
      </cc:Work>
    </rdf:RDF>
  </metadata>
  <g
     inkscape:label="Layer 1"
     inkscape:groupmode="layer"
     id="layer1"
     transform="translate(-44.974131,789.39841)">
    <path
       style="fill:#83b600;fill-opacity:1;stroke:none;stroke-width:0.1;stroke-miterlimit:4.76800013;stroke-dasharray:none;stroke-opacity:1"
       d="m 275.0491,-742.99982 v 15.00064 h -5.03011 v 19.98689 h 5.03011 v 30.02969 h -5.03011 v 19.98689 h 5.03011 v 30.01574 h -5.03011 v 19.9869 h 5.03011 v 30.00126 h -5.03011 v 19.98741 h 5.03011 v 15.00426 h 252.22004 c 0,10e-6 1.12503,0 2.52238,0 h 50.47319 c 1.38173,0 2.46947,10e-6 2.49419,0 h 0.0282 246.9345 5.25738 v -14.9903 h 5.04004 v -19.9869 h -5.04004 v -30.00178 h 5.04004 v -19.98689 h -5.04004 v -30.01574 h 5.04004 v -19.9869 h -5.04004 v -30.02969 h 5.04004 v -19.98689 h -5.04004 v -15.01459 c -1.65895,0 -3.30619,4e-5 -4.9424,1.2e-4 -81.27759,0.004 -135.35899,0.10384 -247.24948,-1.2e-4 h -0.0282 c -0.0248,-10e-6 -1.11246,0 -2.49419,0 h -50.47319 c -1.39735,0 -2.52238,-10e-6 -2.52238,0 z"
       id="path1048"
       inkscape:connector-curvature="0"
       sodipodi:nodetypes="cccccccccccccccccccsscccccccccccccccccccccsccsscc" />
    <g
       id="g209"
       style="fill:none;fill-opacity:1;stroke:#eb0023;stroke-width:0.1;stroke-miterlimit:4.76800013;stroke-dasharray:none;stroke-opacity:1"
       transform="translate(42.820917,45.330452)">
      <path
         id="rect3733-9-6-9-5-1"
         style="fill:none;fill-opacity:1;stroke:#eb0023;stroke-width:0.1;stroke-miterlimit:4.76800013;stroke-dasharray:none;stroke-opacity:1"
         d="m 107.19828,-708.32557 v -5 h 10 v 5 z m 0,70 v -5 h 10 v 5 z m 0,70 v -5 h 10 v 5 z m 0,70 v -5 h 10 v 5 z m 0,70 v -5 h 10 v 5 z m 0,70.00049 v -5 h 10 v 5 z m 0,69.99951 v -5 h 10 v 5 z m -90.00007,-420 v -5 h 10 v 5 z m 0,70 v -5 h 10 v 5 z m 0,70 v -5 h 10 v 5 z m 0,70 v -5 h 10 v 5 z m 0,70.00006 v -5 h 10 v 5 z m 0,70 v -5 h 10 v 5 z m 0,69.99997 v -5 h 10 v 5 z M 202.1984,-548.32557 h 5 v 10 h -5 z m 0,-140 h 5 v 10 h -5 z m 0,280 h 5 v 10 h -5 z m 0,-70 h 5 v 10 h -5 z m 0,140 h 5 v 10 h -5 z m 0,-280 h 5 v 10 h -5 z m 0,-140 h 5 v 10 h -5 z m 10.00457,-30.00487 h -0.01 -15.014 v 4.99557 h -19.9859 v -4.99557 h -30.0281 v 4.99557 h -19.9859 v -4.99557 H 97.16489 v 4.99557 H 77.179084 v -4.99557 h -30.00023 v 4.99557 h -19.98586 v -4.99557 h -14.98978 v 509.99988 h 0.0243 15.00373 v -4.9857 h 19.98638 v 4.9857 h 29.9997 v -4.9857 h 19.9858 v 4.9857 h 30.014146 v -4.9857 h 19.9859 v 4.9857 h 30.0281 v -4.9857 h 19.9859 v 4.9857 h 14.9862 z"
         inkscape:connector-curvature="0" />
    </g>
    <g
       id="g3056"
       style="fill:none;fill-opacity:1;stroke:#eb0023;stroke-width:0.1;stroke-miterlimit:4.76800013;stroke-dasharray:none;stroke-opacity:1"
       transform="translate(47.179083,-20.330386)">
      <g
         style="fill:none;fill-opacity:1;stroke:#eb0023;stroke-width:0.1;stroke-miterlimit:4.76800013;stroke-dasharray:none;stroke-opacity:1"
         transform="translate(47.82091,50.330397)"
         id="g259">
        <path
           style="fill:#831500;fill-opacity:1;stroke:none;stroke-width:0.1;stroke-miterlimit:4.76800013;stroke-dasharray:none;stroke-opacity:1"
           d="m 769.99475,-283.00298 3.6e-4,-449.95423 3e-5,-35.00217 10e-6,-15.04545 h 0.01 15.014 v 4.99557 h 19.9859 v -4.99557 h 30.0281 v 4.99557 h 19.9859 v -4.99557 h 30.0142 v 4.99557 h 19.98585 v -4.99557 h 30.00024 v 4.99557 h 19.98586 v -4.99557 h 14.98978 v 15.04545 34.9628 449.98854"
           id="rect884-7-5"
           inkscape:connector-curvature="0"
           sodipodi:nodetypes="ccccccccccccccccccccccccc" />
        <rect
           style="fill:#83b600;fill-opacity:1;stroke:none;stroke-width:0.1;stroke-miterlimit:4.76800013;stroke-dasharray:none;stroke-opacity:1"
           id="rect3733-0"
           width="4.999999"
           height="9.999999"
           x="-780"
           y="-753"
           transform="scale(-1,1)" />
        <rect
           style="fill:#83b600;fill-opacity:1;stroke:none;stroke-width:0.1;stroke-miterlimit:4.76800013;stroke-dasharray:none;stroke-opacity:1"
           id="rect3733-4-9"
           width="5"
           height="10"
           x="-780"
           y="-613"
           transform="scale(-1,1)" />
        <rect
           style="fill:#83b600;fill-opacity:1;stroke:none;stroke-width:0.1;stroke-miterlimit:4.76800013;stroke-dasharray:none;stroke-opacity:1"
           id="rect3733-9-4"
           width="5"
           height="10"
           x="-780"
           y="-332.99994"
           transform="scale(-1,1)" />
        <rect
           style="fill:#83b600;fill-opacity:1;stroke:none;stroke-width:0.1;stroke-miterlimit:4.76800013;stroke-dasharray:none;stroke-opacity:1"
           id="rect3733-6-7"
           width="5"
           height="10"
           x="-780"
           y="-473"
           transform="scale(-1,1)" />
        <rect
           style="fill:#83b600;fill-opacity:1;stroke:none;stroke-width:0.1;stroke-miterlimit:4.76800013;stroke-dasharray:none;stroke-opacity:1"
           id="rect3733-40-8"
           width="5"
           height="10"
           x="-780"
           y="-402.99994"
           transform="scale(-1,1)" />
        <rect
           style="fill:#83b600;fill-opacity:1;stroke:none;stroke-width:0.1;stroke-miterlimit:4.76800013;stroke-dasharray:none;stroke-opacity:1"
           id="rect3733-5-0"
           width="5"
           height="10"
           x="-780"
           y="-683"
           transform="scale(-1,1)" />
        <rect
           style="fill:#83b600;fill-opacity:1;stroke:none;stroke-width:0.1;stroke-miterlimit:4.76800013;stroke-dasharray:none;stroke-opacity:1"
           id="rect3733-2-9"
           width="5"
           height="10"
           x="-780"
           y="-543"
           transform="scale(-1,1)" />
        <rect
           style="fill:#83b600;fill-opacity:1;stroke:none;stroke-width:0.1;stroke-miterlimit:4.76800013;stroke-dasharray:none;stroke-opacity:1"
           id="rect3733-9-6-36"
           width="5"
           height="20"
           x="282.99997"
           y="-965"
           transform="matrix(0,-1,-1,0,0,0)" />
        <rect
           style="fill:#83b600;fill-opacity:1;stroke:none;stroke-width:0.1;stroke-miterlimit:4.76800013;stroke-dasharray:none;stroke-opacity:1"
           id="rect3733-9-6-1-68"
           width="5"
           height="20"
           x="343.00043"
           y="-965"
           transform="matrix(0,-1,-1,0,0,0)" />
        <rect
           style="fill:#83b600;fill-opacity:1;stroke:none;stroke-width:0.1;stroke-miterlimit:4.76800013;stroke-dasharray:none;stroke-opacity:1"
           id="rect3733-9-6-9-53"
           width="5"
           height="20"
           x="402.99991"
           y="-965"
           transform="matrix(0,-1,-1,0,0,0)" />
        <rect
           style="fill:#83b600;fill-opacity:1;stroke:none;stroke-width:0.1;stroke-miterlimit:4.76800013;stroke-dasharray:none;stroke-opacity:1"
           id="rect3733-9-6-1-6-6"
           width="5"
           height="20"
           x="462.99997"
           y="-965"
           transform="matrix(0,-1,-1,0,0,0)" />
        <rect
           style="fill:#83b600;fill-opacity:1;stroke:none;stroke-width:0.1;stroke-miterlimit:4.76800013;stroke-dasharray:none;stroke-opacity:1"
           id="rect3733-9-6-3-9"
           width="5"
           height="20"
           x="523"
           y="-965"
           transform="matrix(0,-1,-1,0,0,0)" />
        <rect
           style="fill:#83b600;fill-opacity:1;stroke:none;stroke-width:0.1;stroke-miterlimit:4.76800013;stroke-dasharray:none;stroke-opacity:1"
           id="rect3733-9-6-1-2-4"
           width="5"
           height="20"
           x="583"
           y="-970"
           transform="matrix(0,-1,-1,0,0,0)" />
        <rect
           style="fill:#83b600;fill-opacity:1;stroke:none;stroke-width:0.1;stroke-miterlimit:4.76800013;stroke-dasharray:none;stroke-opacity:1"
           id="rect3733-9-6-9-5-3"
           width="5"
           height="20"
           x="643"
           y="-970"
           transform="matrix(0,-1,-1,0,0,0)" />
        <rect
           style="fill:#83b600;fill-opacity:1;stroke:none;stroke-width:0.1;stroke-miterlimit:4.76800013;stroke-dasharray:none;stroke-opacity:1"
           id="rect3733-9-6-5-0"
           width="5"
           height="20"
           x="282.99997"
           y="-870"
           transform="matrix(0,-1,-1,0,0,0)" />
        <rect
           style="fill:#83b600;fill-opacity:1;stroke:none;stroke-width:0.1;stroke-miterlimit:4.76800013;stroke-dasharray:none;stroke-opacity:1"
           id="rect3733-9-6-1-4-8"
           width="5"
           height="20"
           x="342.99997"
           y="-870"
           transform="matrix(0,-1,-1,0,0,0)" />
        <rect
           style="fill:#83b600;fill-opacity:1;stroke:none;stroke-width:0.1;stroke-miterlimit:4.76800013;stroke-dasharray:none;stroke-opacity:1"
           id="rect3733-9-6-9-8-4"
           width="5"
           height="20"
           x="402.99997"
           y="-870"
           transform="matrix(0,-1,-1,0,0,0)" />
        <rect
           style="fill:#83b600;fill-opacity:1;stroke:none;stroke-width:0.1;stroke-miterlimit:4.76800013;stroke-dasharray:none;stroke-opacity:1"
           id="rect3733-9-6-1-6-0-7"
           width="5"
           height="20"
           x="462.99997"
           y="-870"
           transform="matrix(0,-1,-1,0,0,0)" />
        <rect
           style="fill:#83b600;fill-opacity:1;stroke:none;stroke-width:0.1;stroke-miterlimit:4.76800013;stroke-dasharray:none;stroke-opacity:1"
           id="rect3733-9-6-3-0-7"
           width="5"
           height="20"
           x="523"
           y="-870"
           transform="matrix(0,-1,-1,0,0,0)" />
        <rect
           style="fill:#83b600;fill-opacity:1;stroke:none;stroke-width:0.1;stroke-miterlimit:4.76800013;stroke-dasharray:none;stroke-opacity:1"
           id="rect3733-9-6-1-2-3-8"
           width="5"
           height="20"
           x="583"
           y="-875"
           transform="matrix(0,-1,-1,0,0,0)" />
        <rect
           style="fill:#83b600;fill-opacity:1;stroke:none;stroke-width:0.1;stroke-miterlimit:4.76800013;stroke-dasharray:none;stroke-opacity:1"
           id="rect3733-9-6-9-5-1-0"
           width="5"
           height="20"
           x="643"
           y="-875"
           transform="matrix(0,-1,-1,0,0,0)" />
        <rect
           style="fill:#83b600;fill-opacity:1;stroke:none;stroke-width:0.1;stroke-miterlimit:4.76800013;stroke-dasharray:none;stroke-opacity:1"
           id="rect3733-9-6-9-5-3-4"
           width="5"
           height="20"
           x="703"
           y="-970"
           transform="matrix(0,-1,-1,0,0,0)" />
        <rect
           style="fill:#83b600;fill-opacity:1;stroke:none;stroke-width:0.1;stroke-miterlimit:4.76800013;stroke-dasharray:none;stroke-opacity:1"
           id="rect3733-9-6-9-5-1-0-8"
           width="5"
           height="20"
           x="703"
           y="-875"
           transform="matrix(0,-1,-1,0,0,0)" />
      </g>
    </g>
    <path
       id="rect6107-4"
       style="fill:#83b600;fill-opacity:1;stroke:none;stroke-width:0.2;stroke-miterlimit:4.76800013;stroke-dasharray:none;stroke-opacity:1"
       d="m 763.04691,-517.99997 h 2.03116 v 10 h -2.03116 z m -70,0 h 2.03116 v 10 h -2.03116 z m -70,0 h 2.03116 v 10 h -2.03116 z m -70,0 h 2.03116 v 10 h -2.03116 z m -69.99997,0 h 2.03116 v 10 h -2.03116 z m -69.96884,0 h 2.03116 v 10 h -2.03116 z m -70.03116,0 h 2.03116 v 10 h -2.03116 z m -67.96884,-10.00001 v 5.00022 h -5.07824 v 4.9997 9.9999 5.0002 h 5.07824 v 5.00023 h 63.47366 63.47415 63.47364 63.47365 63.47415 63.47365 63.47364 15.86881 15.86828 13.24364 2.62464 52.37509 15.62489 v -5.00023 h 4.9997 v -5.0002 -9.9999 -4.9997 h -4.9997 v -5.00022 H 819.3751 767.00001 764.37537 751.13173 735.26345 719.39464 703.52636 687.65808 671.78927 655.921 640.05272 624.18391 608.31563 592.44735 576.57857 560.71029 544.84198 528.9732 513.10492 497.23664 481.36783 465.49955 449.63127 433.76246 417.89419 402.02591 386.1571 370.28882 354.42054 338.55176 322.68345 306.81518 290.94638 Z"
       inkscape:connector-curvature="0" />
    <path
       style="fill:none;fill-opacity:1;stroke:#eb0023;stroke-width:0.1;stroke-miterlimit:4.76800013;stroke-dasharray:none;stroke-opacity:1"
       d="m 412.99993,-343.00043 v 9.99991 h 2.0004 v 50.00003 h 49.99952 v -50.00003 h 2.00041 v -9.99991 h -2.00041 -49.99952 z"
       id="rect1307"
       inkscape:connector-curvature="0" />
    <g
       id="g3070"
       style="fill:none;fill-opacity:1;stroke:#eb0023;stroke-width:0.1;stroke-miterlimit:4.76800013;stroke-dasharray:none;stroke-opacity:1">
      <g
         style="fill:none;fill-opacity:1;stroke:#eb0023;stroke-width:0.1;stroke-miterlimit:4.76800013;stroke-dasharray:none;stroke-opacity:1"
         transform="translate(245.00033,-230.00072)"
         id="g1632">
        <path
           style="fill:none;fill-opacity:1;stroke:#eb0023;stroke-width:0.1;stroke-linejoin:round;stroke-miterlimit:4.76800013;stroke-dasharray:none;stroke-opacity:1"
           d="m 109.99969,-44.999724 v 1.999879 H 105 v 5.000228 h -1.99988 v 4.999673 H 105 v 5.000228 h -1.99988 v 4.999699 H 105 v 5.000201 h -1.99988 v 4.999699 H 105 v 5.0002008 h -1.99988 v 5.0002286 H 105 v 4.999699 h -1.99988 v 5.000201 H 105 v 4.9996986 h -1.99988 v 5.000203 H 105 v 5.000202 h -1.99988 v 4.999698 H 105 v 5.000229 h -1.99988 v 4.999698 H 105 v 5.000202 h -1.99988 v 5.000202 H 105 v 4.999699 h -1.99988 v 5.000228 H 105 v 4.999672 h -1.99988 v 5.000228 H 105 v 5.000202 h -1.99988 v 4.999699 H 105 v 5.000201 h -1.99988 v 4.999699 H 105 v 5.000231 h -1.99988 v 4.99967 H 105 v 5.000226 h -1.99988 v 5.0002 H 105 V 112 h -1.99988 v 5.0002 H 105 v 4.9997 h -1.99988 v 5.00023 H 105 v 5.0002 h -1.99988 v 4.9997 H 105 v 5.0002 l -3.3e-4,5e-4 2.3e-4,-5.8e-4 1e-4,4.99978 v 6.95462 c 0,1.6873 1.26239,3.04581 2.83031,3.04581 h 44.33942 c 1.56791,0 2.83032,-1.35851 2.83032,-3.04581 v -6.95462 l -1.5e-4,2.1e-4 v -4.99999 l 1.5e-4,8e-5 v -5.0002 h 1.99987 v -4.9997 h -1.99987 v -5.0002 h 1.99987 v -5.00023 h -1.99987 v -4.9997 h 1.99987 V 112 h -1.99987 v -4.9997 h 1.99987 v -5.0002 h -1.99987 v -5.000226 h 1.99987 v -4.99967 h -1.99987 v -5.000231 h 1.99987 v -4.999699 h -1.99987 v -5.000201 h 1.99987 v -4.999699 h -1.99987 v -5.000202 h 1.99987 v -5.000228 h -1.99987 v -4.999672 h 1.99987 v -5.000228 h -1.99987 v -4.999699 h 1.99987 v -5.000202 h -1.99987 v -5.000202 h 1.99987 v -4.999698 h -1.99987 v -5.000229 h 1.99987 v -4.999698 h -1.99987 v -5.000202 h 1.99987 v -5.000203 h -1.99987 V 7.0002124 h 1.99987 v -5.000201 h -1.99987 v -4.999699 h 1.99987 v -5.0002286 h -1.99987 v -5.0002008 h 1.99987 v -4.999699 h -1.99987 v -5.000201 h 1.99987 v -4.999699 h -1.99987 v -5.000228 h 1.99987 v -4.999673 h -1.99987 v -5.000228 h -5.00022 v -1.999879 h -4.99969 v 1.999879 h -5.00021 v -1.999879 h -5.00021 v 1.999879 h -9.99991 v -1.999879 h -4.9997 v 1.999879 h -5.00021 v -1.999879 z"
           id="rect1095"
           inkscape:connector-curvature="0"
           sodipodi:nodetypes="cccccccccccccccccccccccccccccccccccccccccccccccccccccccccccccccccccccccccccccccsssscccccccccccccccccccccccccccccccccccccccccccccccccccccccccccccccccccccccccccccccccccccccccccc" />
        <rect
           style="fill:none;fill-opacity:1;stroke:#eb0023;stroke-width:0.1;stroke-miterlimit:4.76800013;stroke-dasharray:none;stroke-opacity:1"
           id="rect1253"
           width="46"
           height="7.9999995"
           x="107"
           y="147"
           ry="2.0000167"
           rx="2.0000167" />
        <rect
           style="fill:none;fill-opacity:1;stroke:#eb0023;stroke-width:0.1;stroke-miterlimit:4.76800013;stroke-dasharray:none;stroke-opacity:1"
           id="rect1126"
           width="5"
           height="1.9999999"
           x="115"
           y="142" />
        <rect
           style="fill:none;fill-opacity:1;stroke:#eb0023;stroke-width:0.1;stroke-miterlimit:4.76800013;stroke-dasharray:none;stroke-opacity:1"
           id="rect1124"
           width="5"
           height="1.9999999"
           x="140"
           y="142" />
      </g>
    </g>
    <path
       style="fill:none;fill-opacity:1;stroke:#eb0023;stroke-width:0.1;stroke-miterlimit:4.76800013;stroke-dasharray:none;stroke-opacity:1"
       d="m 321.99981,-283.00004 5.00022,-4.9e-4 v -1.99988 h 9.9999 v -2.99982 h 1.99988 v -4.9997 h -1.99988 v -5.00021 h 1.99988 v -5.00023 h -1.99988 v -4.9997 h 1.99988 v -5.0002 h -1.99988 v -4.9997 h 1.99988 v -5.0002 h -1.99988 v -5.00022 h 1.99988 v -4.99967 h -1.99988 v -5.00023 h 1.99988 v -4.9997 H 288.99976 286.99988 285 v 4.9997 h 1.99988 v 5.00023 H 285 v 4.99967 h 1.99988 v 5.00022 H 285 v 5.0002 h 1.99988 v 4.9997 H 285 v 5.0002 h 1.99988 v 4.9997 H 285 v 5.00023 h 1.99988 v 5.00021 H 285 v 4.9997 h 1.99988 v 3.00032 h 1.99988 8.00003 v 1.99987 H 302 v -1.99987 h 19.99981 z"
       id="rect1120"
       inkscape:connector-curvature="0" />
    <g
       id="g3063"
       style="fill:none;fill-opacity:1;stroke:#eb0023;stroke-width:0.1;stroke-miterlimit:4.76800013;stroke-dasharray:none;stroke-opacity:1">
      <g
         style="fill:none;fill-opacity:1;stroke:#eb0023;stroke-width:0.1;stroke-miterlimit:4.76800013;stroke-dasharray:none;stroke-opacity:1"
         transform="translate(245.00153,-231.00052)"
         id="g1572">
        <path
           style="fill:none;fill-opacity:1;stroke:#eb0023;stroke-width:0.37795275;stroke-linecap:round;stroke-linejoin:round;stroke-miterlimit:4.76800013;stroke-dasharray:none;stroke-opacity:1"
           d="m 916.06055,1943.9922 v 7.5586 h -18.89453 v 113.3867 h 37.79492 c 8e-5,0 0,1.6854 0,3.7793 0,2.0939 8e-5,3.7793 0,3.7793 h -37.79492 v 181.418 h 37.79492 c 8e-5,0 0,1.6303 0,3.6562 v 0.2461 c 0,2.026 8e-5,3.6563 0,3.6563 h -37.79492 v 181.4179 h 37.79492 v 3.7793 3.7793 h -37.79492 v 200.3145 h 18.89648 v 7.5586 h 18.89844 v -7.5586 h 18.89648 v 7.5586 h 18.89844 v -7.5586 h 18.89844 v 7.5586 h 18.8965 v -7.5586 h 18.8984 v 7.5586 h 18.8965 v -7.5586 h 18.8984 v 7.5586 h 18.8985 v -7.5586 h 18.8965 v 7.5586 h 11.3398 v -7.5586 h 7.5586 v -18.8985 h -7.5586 v -18.8984 h 7.5586 v -18.8965 h -7.5586 v -18.8984 h 7.5586 v -18.8965 h -7.5586 v -18.8984 h 7.5586 v -18.8985 h -7.5586 v -18.8965 h 7.5586 v -18.8984 h -7.5586 v -18.8965 h 7.5586 v -18.8984 h -7.5586 v -18.8985 h 7.5586 v -18.8964 h -7.5586 v -18.8985 h 7.5586 v -18.8965 h -7.5586 v -18.8984 h 7.5586 v -18.8965 h -7.5586 v -18.8984 h 7.5586 v -18.8985 h -7.5586 v -18.8965 h 7.5586 v -18.8984 h -7.5586 v -18.8965 h 7.5586 v -18.8984 h -7.5586 v -18.8984 h 7.5586 v -18.8965 h -7.5586 v -18.8985 h 7.5586 v -18.8965 h -7.5586 v -18.8984 h 7.5586 v -18.8984 h -7.5586 v -18.8965 h 7.5586 v -18.8985 h -7.5586 v -18.8964 h 7.5586 v -18.8985 h -7.5586 v -18.8984 h 7.5586 v -18.8965 h -7.5586 v -18.8984 h 7.5586 v -18.8965 h -7.5605 v -7.5586 h -11.3399 v 7.5586 h -18.8945 v 0 -7.5586 h -18.8984 v 7.5586 h -18.8965 v 0 -7.5586 h -18.8965 v 7.5586 h -18.8965 v 0 -7.5586 h -18.89646 v 7.5586 h -18.89648 -0.002 v -7.5586 h -18.89844 v 7.5586 h -18.89453 -0.002 v -7.5586 z"
           transform="matrix(0.26458333,0,0,0.26458333,-197.37568,-558.34789)"
           id="rect1471-5"
           inkscape:connector-curvature="0" />
      </g>
    </g>
    <path
       style="fill:none;fill-opacity:1;stroke:#eb0023;stroke-width:0.1;stroke-miterlimit:4.76800013;stroke-dasharray:none;stroke-opacity:1"
       d="m 350.50051,-341.00007 c -1.385,0 -2.50011,5e-4 -2.50011,5.3e-4 v 2.00038 2.99932 h 1.99988 v 1.99988 3.00033 h -1.99988 v 1.99987 2.99982 h 1.99988 v 5.0002 h -1.99988 v 1.99988 3.00034 h 1.99988 v 4.9997 h -1.99988 v 2.00039 2.99982 h 1.99988 v 4.99969 h -1.99988 v 2.00039 2.99982 h 1.99988 v 5.00022 h -1.99988 v 2.00039 2.99929 h 1.99988 v 2.99982 5.2e-4 1.99936 h 4.99969 v -1.99988 h 5.00022 v 1.99988 h 5.00021 v -1.99988 h 4.99969 v 1.99988 H 380 v -1.99988 h 5.00021 v 1.99988 h 5.00021 v -1.99988 h 4.9997 v 1.99988 h 5.00021 v -1.99936 l -3.3e-4,-5e-4 v 0 l 3.3e-4,-5e-4 v -3.00034 h 1.99988 v -2.99826 -2.00142 h -1.99988 v -2.99931 -2.00091 h 1.99988 v -2.99879 -2.00142 h -1.99988 v -4.99969 h 1.99988 v -2.99879 -2.00142 h -1.99988 v -4.9997 h 1.99988 v -2.99931 -2.00091 h -1.99988 v -5.0002 h 1.99988 v -2.99879 -2.00091 h -1.99988 v -2.99929 -2.00091 h 1.99988 v -2.99829 h 5.1e-4 v -2.00038 c 0,-3e-5 -1.1151,-5.3e-4 -2.5001,-5.3e-4 z"
       id="rect1120-7"
       inkscape:connector-curvature="0"
       sodipodi:nodetypes="ssccccccccccccccccccccccccccccccccccccccccccccccccccccccccccccccccccccccccccccccccccccsss" />
    <g
       id="g3077"
       style="fill:none;fill-opacity:1;stroke:#eb0023;stroke-width:0.1;stroke-miterlimit:4.76800013;stroke-dasharray:none;stroke-opacity:1">
      <g
         style="fill:none;fill-opacity:1;stroke:#eb0023;stroke-width:0.1;stroke-miterlimit:4.76800013;stroke-dasharray:none;stroke-opacity:1"
         transform="translate(235.00093,-232.00059)"
         id="g1591">
        <path
           style="fill:none;fill-opacity:1;stroke:#eb0023;stroke-width:0.37795275;stroke-linecap:round;stroke-linejoin:round;stroke-miterlimit:4.76800013;stroke-dasharray:none;stroke-opacity:1"
           d="m 1358.2656,1943.9922 v 7.5586 h -7.5605 v 18.8965 h 7.5586 v 18.8984 h -7.5586 v 18.8965 h 7.5586 v 18.8984 h -7.5586 v 18.8985 h 7.5586 v 18.8964 h -7.5586 v 18.8985 h 7.5586 v 18.8965 h -7.5586 v 18.8984 h 7.5586 v 18.8984 h -7.5586 v 18.8965 h 7.5586 v 18.8985 h -7.5586 v 18.8965 h 7.5586 v 18.8984 h -7.5586 v 18.8984 h 7.5586 v 18.8965 h -7.5586 v 18.8984 h 7.5586 v 18.8965 h -7.5586 v 18.8985 h 7.5586 v 18.8984 h -7.5586 v 18.8965 h 7.5586 v 18.8984 h -7.5586 v 18.8965 h 7.5586 v 18.8985 h -7.5586 v 18.8964 h 7.5586 v 18.8985 h -7.5586 v 18.8984 h 7.5586 v 18.8965 h -7.5586 v 18.8984 h 7.5586 v 18.8965 h -7.5586 v 18.8985 h 7.5586 v 18.8984 h -7.5586 v 18.8965 h 7.5586 v 18.8984 h -7.5586 v 18.8965 h 7.5586 v 18.8984 h -7.5586 v 18.8985 h 7.5586 v 7.5586 h 11.3398 v -7.5586 H 1388.5 v 7.5586 h 18.8984 v -7.5586 h 18.8985 v 7.5586 h 18.8965 v -7.5586 h 18.8984 v 7.5586 h 18.8965 v -7.5586 h 18.8984 v 7.5586 h 18.8985 v -7.5586 h 18.8964 v 7.5586 h 18.8985 v -7.5586 h 18.8965 v -204.0938 h -37.793 c -10e-5,0 0,-1.6854 0,-3.7793 0,-2.0938 -10e-5,-3.7812 0,-3.7812 h 37.793 v -181.416 h -37.793 c -10e-5,0 0,-1.6855 0,-3.7793 0,-2.0939 -10e-5,-3.7793 0,-3.7793 h 37.793 v -181.418 h -37.793 c -10e-5,0 0,-1.6854 0,-3.7793 0,-2.0939 -10e-5,-3.7793 0,-3.7793 h 37.793 v -109.6074 h -18.8946 v -7.5586 h -18.8984 v 7.5586 0 h -18.8945 v -7.5586 h -18.8984 v 7.5586 0 h -18.8965 v -7.5586 h -18.8964 v 7.5586 0 h -18.8965 v -7.5586 h -18.8965 v 7.5586 0 h -18.8965 v -7.5586 h -18.8984 v 7.5586 0 h -18.8945 v -7.5586 z"
           transform="matrix(0.26458333,0,0,0.26458333,-187.37508,-557.34782)"
           id="rect1471-5-0"
           inkscape:connector-curvature="0" />
      </g>
    </g>
    <g
       id="g3085"
       style="fill:none;fill-opacity:1;stroke:#eb0023;stroke-width:0.1;stroke-miterlimit:4.76800013;stroke-dasharray:none;stroke-opacity:1">
      <g
         transform="translate(147.99942,-175)"
         style="fill:none;fill-opacity:1;stroke:#eb0023;stroke-width:0.1;stroke-miterlimit:4.76800013;stroke-dasharray:none;stroke-opacity:1"
         id="g176">
        <path
           style="fill:none;fill-opacity:1;stroke:#eb0023;stroke-width:0.1;stroke-miterlimit:4.76800013;stroke-dasharray:none;stroke-opacity:1"
           d="m 355.0002,-45.000107 c 0,0 0,0.445929 0,0.99994 0,0.553693 0,0.99896 0,0.99941 -0.19762,-2.6e-5 -0.17148,0 -0.38447,0 h -2.05155 c -1.4205,0 -2.56418,5.29e-4 -2.56418,5.29e-4 v 6.930311 0.990124 2.079466 c 0,-2.7e-5 -0.44596,0 -0.99994,0 -0.55401,0 -0.99994,-2.7e-5 -0.99994,0 v 9.9999 c 0,2.7e-5 0.44593,5.3e-4 0.99994,5.3e-4 0.55398,0 0.99994,-5.03e-4 0.99994,-5.3e-4 v 10.00043 c 0,-2.6e-5 -0.44596,0 -0.99994,0 -0.55401,0 -0.99994,-2.6e-5 -0.99994,0 v 9.9999006 c 0,2.65e-5 0.44593,0 0.99994,0 0.55398,0 0.99994,2.65e-5 0.99994,0 v 9.9999005 c 0,0 -0.44596,0 -0.99994,0 -0.55401,0 -0.99994,0 -0.99994,0 v 9.9999269 c 0,0 0.44593,0 0.99994,0 0.55398,0 0.99994,0 0.99994,0 v 10.000403 c 0,0 -0.44596,-5.02e-4 -0.99994,-5.02e-4 -0.55401,0 -0.99994,5.02e-4 -0.99994,5.02e-4 v 9.999901 c 0,2.6e-5 0.44593,0 0.99994,0 0.55398,2.6e-5 0.99994,2.6e-5 0.99994,0 v 9.999927 c 0,-2.7e-5 -0.44596,0 -0.99994,0 -0.55401,0 -0.99994,-2.7e-5 -0.99994,0 v 9.9999 c 0,0 0.44593,0 0.99994,0 0.55398,0 0.99994,0 0.99994,0 v 9.999901 c 0,0 -0.44596,0 -0.99994,0 -0.55401,0 -0.99994,0 -0.99994,0 v 9.9999 c 0,2.7e-5 0.44593,0 0.99994,0 0.55398,0 0.99994,2.7e-5 0.99994,0 v 10.00043 c 0,0 -0.44596,0 -0.99994,0 -0.55401,0 -0.99994,0 -0.99994,0 v 9.9999 c 0,2.7e-5 0.44593,0 0.99994,0 0.55398,0 0.99994,2.7e-5 0.99994,0 v 9.999927 c 0,-3e-5 -0.44596,0 -0.99994,0 -0.55401,0 -0.99994,-3e-5 -0.99994,0 v 9.9999 c 0,0 0.44593,0 0.99994,0 0.55398,0 0.99994,0 0.99994,0 v 9.9999 c 0,-3e-5 -0.44596,0 -0.99994,0 -0.55401,0 -0.99994,-3e-5 -0.99994,0 v 9.9999 c 0,3e-5 0.44593,0 0.99994,0 0.55398,0 0.99994,3e-5 0.99994,0 v 13.06949 c 0,3.83961 3.20246,6.93034 7.17991,6.93034 h 225.64051 c 3.97745,0 7.17991,-3.09073 7.17991,-6.93034 v -13.06949 c 0,3e-5 0.44593,0 0.99994,0 0.55399,0 0.99994,3e-5 0.99994,0 v -9.9999 c 0,-3e-5 -0.44595,0 -0.99994,0 -0.55401,0 -0.99994,-3e-5 -0.99994,0 v -9.9999 c 0,0 0.44593,0 0.99994,0 0.55399,0 0.99994,0 0.99994,0 v -9.9999 c 0,-3e-5 -0.44595,0 -0.99994,0 -0.55401,0 -0.99994,-3e-5 -0.99994,0 v -9.999927 c 0,2.7e-5 0.44593,0 0.99994,0 0.55399,0 0.99994,2.7e-5 0.99994,0 v -9.9999 c 0,0 -0.44595,0 -0.99994,0 -0.55401,0 -0.99994,0 -0.99994,0 v -10.00043 c 0,2.7e-5 0.44593,0 0.99994,0 0.55399,0 0.99994,2.7e-5 0.99994,0 v -9.9999 c 0,0 -0.44595,0 -0.99994,0 -0.55401,0 -0.99994,0 -0.99994,0 v -9.999901 c 0,0 0.44593,0 0.99994,0 0.55399,0 0.99994,0 0.99994,0 v -9.9999 c 0,-2.7e-5 -0.44595,0 -0.99994,0 -0.55401,0 -0.99994,-2.7e-5 -0.99994,0 v -9.999927 c 0,2.6e-5 0.44593,0 0.99994,0 0.55399,2.6e-5 0.99994,2.6e-5 0.99994,0 V 26.999632 c 0,-2.7e-5 -0.44595,0 -0.99994,0 -0.55401,0 -0.99994,-2.7e-5 -0.99994,0 v -9.999901 c 0,0 0.44593,0 0.99994,0 0.55399,0 0.99994,0 0.99994,0 V 6.9998041 c 0,0 -0.44595,0 -0.99994,0 -0.55401,0 -0.99994,0 -0.99994,0 v -9.9999005 c 0,2.65e-5 0.44593,0 0.99994,0 0.55399,0 0.99994,2.65e-5 0.99994,0 v -9.9999006 c 0,-2.6e-5 -0.44595,0 -0.99994,0 -0.55401,0 -0.99994,-2.6e-5 -0.99994,0 v -10.00043 c 0,2.7e-5 0.44593,5.3e-4 0.99994,5.3e-4 0.55399,0 0.99994,-5.03e-4 0.99994,-5.3e-4 v -9.9999 c 0,-2.7e-5 -0.44595,0 -0.99994,0 -0.55401,0 -0.99994,-2.7e-5 -0.99994,0 v -3.06959 -6.930311 c 0,0 -1.14368,-5.29e-4 -2.56418,-5.29e-4 h -2.05155 c -0.21302,0 -0.18685,-2.6e-5 -0.38449,0 2e-5,-4.5e-4 0,-0.445717 0,-0.99941 0,-0.554011 2e-5,-0.99994 0,-0.99994 h -9.9999 c 0,0 0,0.445929 0,0.99994 0,0.553984 0,0.999939 0,0.999939 h -9.99991 c 0,0 0,-0.445955 0,-0.999939 0,-0.554011 0,-0.99994 0,-0.99994 h -9.9999 c -2e-5,0 0,0.445929 0,0.99994 0,0.553984 -2e-5,0.999939 0,0.999939 h -10.00043 c 3e-5,0 0,-0.445955 0,-0.999939 0,-0.554011 3e-5,-0.99994 0,-0.99994 h -9.9999 c -2e-5,0 0,0.445929 0,0.99994 0,0.553984 -2e-5,0.999939 0,0.999939 h -9.9999 c 0,0 0,-0.398039 0,-0.892466 0,-0.4944 0,-0.892439 0,-0.892439 h -9.99992 c 0,0 0,0.398039 0,0.892439 0,0.494427 0,0.892466 0,0.892466 h -9.9999 c 2e-5,0 0,-0.445955 0,-0.999939 0,-0.554011 2e-5,-0.99994 0,-0.99994 h -9.9999 c -3e-5,0 -5.3e-4,0.445929 -5.3e-4,0.99994 0,0.553984 5e-4,0.999939 5.3e-4,0.999939 h -10.00043 c 2e-5,0 0,-0.445955 0,-0.999939 0,-0.554011 2e-5,-0.99994 0,-0.99994 h -9.9999 c -3e-5,0 0,0.445929 0,0.99994 0,0.553984 -3e-5,0.999939 0,0.999939 h -9.99991 c 0,0 0,-0.445955 0,-0.999939 0,-0.554011 0,-0.99994 0,-0.99994 h -9.99992 c 0,0 0,0.445929 0,0.99994 0,0.553984 0,0.999939 0,0.999939 h -9.9999 c 2e-5,0 0,-0.445955 0,-0.999939 0,-0.554011 2e-5,-0.99994 0,-0.99994 h -10.00041 c -2e-5,0 0,0.445929 0,0.99994 0,0.553984 -2e-5,0.999939 0,0.999939 h -9.99992 c 2e-5,0 0,-0.445955 0,-0.999939 0,-0.554011 2e-5,-0.99994 0,-0.99994 h -9.9999 c 0,0 0,0.445929 0,0.99994 0,0.553984 0,0.999939 0,0.999939 h -9.9999 c 0,0 0,-0.445955 0,-0.999939 0,-0.554011 0,-0.99994 0,-0.99994 h -9.9999 c -3e-5,0 0,0.445929 0,0.99994 0,0.553984 -3e-5,0.999939 0,0.999939 h -10.00043 c 0,0 0,-0.445955 0,-0.999939 0,-0.554011 0,-0.99994 0,-0.99994 h -9.9999 c -3e-5,0 0,0.445929 0,0.99994 0,0.553984 -3e-5,0.999939 0,0.999939 h -9.99993 c 3e-5,0 0,-0.445955 0,-0.999939 0,-0.554011 3e-5,-0.99994 0,-0.99994 z"
           id="rect1051"
           inkscape:connector-curvature="0" />
        <rect
           style="fill:none;fill-opacity:1;stroke:#eb0023;stroke-width:0.1;stroke-miterlimit:4.76800013;stroke-dasharray:none;stroke-opacity:1"
           id="rect1253-5"
           width="232"
           height="7.9999967"
           x="354"
           y="146"
           ry="2.0000167"
           rx="2.0000167" />
        <rect
           style="fill:none;fill-opacity:1;stroke:#eb0023;stroke-width:0.1;stroke-miterlimit:4.76800013;stroke-dasharray:none;stroke-opacity:1"
           id="rect1053-27-80"
           width="1.9999999"
           height="19.999996"
           x="-139"
           y="390"
           rx="2.5000002"
           ry="2.6308182e-005"
           transform="rotate(-90)" />
        <rect
           style="fill:none;fill-opacity:1;stroke:#eb0023;stroke-width:0.1;stroke-miterlimit:4.76800013;stroke-dasharray:none;stroke-opacity:1"
           id="rect1053-27-80-2"
           width="1.9999999"
           height="19.999996"
           x="-139"
           y="460"
           rx="2.5000002"
           ry="2.6308182e-005"
           transform="rotate(-90)" />
        <rect
           style="fill:none;fill-opacity:1;stroke:#eb0023;stroke-width:0.1;stroke-miterlimit:4.76800013;stroke-dasharray:none;stroke-opacity:1"
           id="rect1053-27-80-9"
           width="1.9999999"
           height="19.999996"
           x="-139"
           y="530"
           rx="2.5000002"
           ry="2.6308182e-005"
           transform="rotate(-90)" />
      </g>
    </g>
    <g
       id="g3098"
       transform="translate(0.52916667,-4.7625002)"
       style="fill:none;fill-opacity:1;stroke:#eb0023;stroke-width:0.1;stroke-miterlimit:4.76800013;stroke-dasharray:none;stroke-opacity:1">
      <path
         style="fill:none;fill-opacity:1;stroke:#eb0023;stroke-width:0.37795275;stroke-miterlimit:4.76800013;stroke-dasharray:none;stroke-opacity:1"
         d="m 2656.6445,1680.3203 v 0 7.5586 h -10.1778 c -4.8319,0 -8.7207,-10e-5 -8.7207,0 v 26.1934 11.6015 h 3.4883 3.4883 v 37.795 c 0,10e-5 -1.5556,0 -3.4883,0 h -3.4883 v 37.7968 h 3.4883 3.4883 v 37.795 c 0,10e-5 -1.5556,0 -3.4883,0 -1.9329,0 -3.4883,10e-5 -3.4883,0 v 37.7949 h 3.4883 3.4883 v 37.7949 h -3.4883 -3.4883 v 37.7949 c 0,-10e-5 1.5554,0 3.4883,0 1.9327,0 3.4883,-10e-5 3.4883,0 v 37.7969 c 0,2e-4 -1.5556,2e-4 -3.4883,0 -1.9329,0 -3.4883,2e-4 -3.4883,0 v 37.7949 c 0,-10e-5 1.5554,0 3.4883,0 1.9327,0 3.4883,-10e-5 3.4883,0 v 37.7949 h -3.4883 -3.4883 v 37.795 h 3.4883 3.4883 v 37.7949 c 0,1e-4 -1.5556,0 -3.4883,0 -1.9329,0 -3.4883,1e-4 -3.4883,0 v 37.7969 h 3.4883 3.4883 v 37.7949 c 0,1e-4 -1.5556,0 -3.4883,0 -1.9329,0 -3.4883,1e-4 -3.4883,0 v 37.7949 c 0,-10e-5 1.5554,0 3.4883,0 1.9327,0 3.4883,-10e-5 3.4883,0 v 37.7949 h -3.4883 -3.4883 v 37.7949 c 0,-1e-4 1.5554,0 3.4883,0 1.9327,0 3.4883,-1e-4 3.4883,0 v 37.795 c 0,10e-5 -1.5556,0 -3.4883,0 -1.9329,0 -3.4883,10e-5 -3.4883,0 v 18.8984 h 8.7207 10.1778 v 7.5566 h 9.4472 9.4493 v -7.5566 h 18.8984 v 7.5566 h 9.4492 9.4473 v -7.5566 h 18.8984 v 7.5566 h 9.4492 9.4493 v -7.5566 h 18.8964 v 7.5566 h 9.4493 9.4492 v -7.5566 h 18.8965 v 7.5566 h 9.4492 9.4492 v -7.5566 h 18.8984 v 7.5566 h 9.4473 9.4492 V 2387.0938 2183 h -28.3457 c -5.2346,0 -9.4492,1e-4 -9.4492,0 v -7.5586 c 0,0 4.2146,0 9.4492,0 h 28.3457 v -181.418 h -28.3457 c -5.2346,0 -9.4492,10e-5 -9.4492,0 v -7.5586 h 9.4492 28.3457 v -181.4179 h -28.3457 -9.4492 v -7.5586 c 0,-10e-5 4.2146,0 9.4492,0 h 28.3457 v -109.6055 c 0,-4.1862 1e-4,-7.5586 0,-7.5586 h -9.4492 c -5.2347,0 -9.4473,-10e-5 -9.4473,0 v 7.5586 h -18.8984 c 0,-4.1862 10e-5,-7.5586 0,-7.5586 h -9.4492 c -5.2336,0 -9.4475,-10e-5 -9.4492,0 v 7.5586 h -18.8985 v -7.5586 h -9.4492 c -5.2336,0 -9.4474,-10e-5 -9.4492,0 v 7.5586 h -18.8965 v -7.5586 h -9.4492 c -5.2346,0 -9.4492,-10e-5 -9.4492,0 v 7.5586 h -18.8965 c 0,-4.1878 10e-5,-7.5605 0,-7.5605 h -9.4473 c -5.2346,0 -9.4492,-10e-5 -9.4492,0 v 7.5586 h -18.8965 c 0,-4.1878 1e-4,-7.5606 0,-7.5606 h -9.4492 c -5.2346,0 -9.4473,-10e-5 -9.4473,0 z"
         transform="matrix(0.26458333,0,0,0.26458333,47.09668,-784.58591)"
         id="rect1110"
         inkscape:connector-curvature="0" />
    </g>
    <path
       style="fill:none;fill-opacity:1;stroke:#eb0023;stroke-width:0.37795275;stroke-miterlimit:4.76800013;stroke-dasharray:none;stroke-opacity:1"
       d="m 1702.2012,1913.7578 c 10e-5,0 0,4.2127 0,9.4473 0,5.2347 10e-5,9.4492 0,9.4492 h -7.5586 v 18.8965 h 7.5586 c 10e-5,0 0,4.2146 0,9.4492 0,5.2347 10e-5,9.4512 0,9.4512 h -7.5586 v 18.8945 h 7.5586 c 10e-5,0 0,4.2165 0,9.4512 0,5.2346 10e-5,9.4492 0,9.4492 h -7.5586 v 18.8965 h 7.5566 c 10e-5,0 0,4.2145 0,9.4492 0,5.2346 10e-5,9.4473 0,9.4473 h -7.5566 v 18.8984 h 7.5566 c 10e-5,0 0,4.2127 0,9.4473 0,5.2346 10e-5,9.4492 0,9.4492 h -7.5566 v 18.9004 h 7.5566 c 10e-5,0 0,4.2145 0,9.4492 0,5.2346 10e-5,9.4453 0,9.4453 h -7.5566 v 18.8984 h 3.6191 0.3203 3.6192 9.6894 7.7539 c 0.805,0 0.7063,-1e-4 1.4532,0 v -3.7773 -3.7793 h 37.7949 c 1e-4,0 0,1.6854 0,3.7793 0,2.0937 1e-4,3.7793 0,3.7793 h 37.7949 c -10e-5,0 0,-1.6856 0,-3.7793 0,-2.0939 -10e-5,-3.7793 0,-3.7793 h 37.7949 v 3.7793 3.7793 h 37.7969 c -2e-4,0 0,-1.6856 0,-3.7793 0,-2.0939 -2e-4,-3.7793 0,-3.7793 h 37.7949 v 3.7793 3.7793 h 37.7949 v -3.7793 -3.7793 h 37.793 c 10e-5,0 0,1.6854 0,3.7793 0,2.0937 10e-5,3.7793 0,3.7793 h 37.7949 c -2e-4,0 0,-1.6856 0,-3.7793 0,-2.0939 -2e-4,-3.7793 0,-3.7793 h 37.7969 c 10e-5,0 0,1.6854 0,3.7793 0,2.0937 10e-5,3.7793 0,3.7793 h 37.7949 v -3.7793 -3.7793 h 37.795 v 3.7793 3.7793 h 37.7949 c -10e-5,0 0,-1.6856 0,-3.7793 0,-2.0939 -10e-5,-3.7793 0,-3.7793 h 37.7949 v 3.7793 3.7793 h 37.7969 c -3e-4,0 0,-1.6856 0,-3.7793 v -3.7793 h 37.7949 v 3.7793 3.7793 h 37.793 v -3.3731 -3.373 h 37.7949 v 3.373 3.3731 h 37.7949 c -3e-4,0 0,-1.6856 0,-3.7793 0,-2.0939 -3e-4,-3.7793 0,-3.7793 h 37.7949 v 3.7793 3.7793 H 2477 c -1e-4,0 0,-1.6856 0,-3.7793 0,-2.0939 -1e-4,-3.7793 0,-3.7793 h 37.7949 v 3.7793 3.7793 h 37.7949 v -3.7793 -3.7793 h 37.795 c 2e-4,0 0,1.6854 0,3.7793 0,2.0926 2e-4,3.7756 0,3.7773 0.7471,-1e-4 0.6482,0 1.4531,0 h 7.7539 2.1328 v 0 0 c 0,10e-5 3.3728,0 7.5606,0 h 3.7793 c 1.3663,0 3.7793,0 3.7793,0 v -18.8965 c 0,0 -3.3705,0 -7.5567,0 v -9.4454 -9.4492 h 7.5567 v 0 -18.8965 0 c 0,0 -3.3705,0 -7.5567,0 v -9.4472 -9.4473 h 7.5567 v 0 -18.8965 0 c 0,0 -3.3705,0 -7.5567,0 v -9.4472 -9.4493 c 4.1862,0 7.5567,10e-5 7.5567,0 v -18.8965 0 c 0,-10e-5 -3.3705,0 -7.5567,0 v -9.4473 -9.4492 h 7.5567 v 0 -18.8946 0 c 0,-10e-5 -3.3705,0 -7.5567,0 v -9.4473 -9.4492 h 7.5567 v 0 -18.8965 h -7.5586 c 0,0 0,0 -0.01,0 v 0 -18.8965 c 0,-10e-5 -1.686,0 -3.7792,0 -2.0932,0 -3.7774,-10e-5 -3.7774,0 h -1.8906 -888.1856 -1.8906 c 0,-10e-5 -1.6859,0 -3.7793,0 -2.0923,0 -3.7756,-10e-5 -3.7773,0 z m 907.08,37.7949 c 0,0 0,0 0.01,0 v 18.8985 c 0,0 0,0 -0.01,0 z m 0,37.795 c 0,0 0,0 0.01,0 v 18.8984 c 0,0 0,0 -0.01,0 z m 0,37.7968 c 0,0 0,0 0.01,0 v 18.8965 c 0,0 0,0 -0.01,0 z m 0,37.795 c 0,0 0,0 0.01,0 v 18.8964 c 0,0 0,0 -0.01,0 z m 0,37.7949 c 0,0 0,0 0.01,0 v 18.8965 c 0,0 0,0 -0.01,0 z"
       transform="matrix(0.26458333,0,0,0.26458333,47.625847,-789.34841)"
       id="rect1199"
       inkscape:connector-curvature="0" />
    <g
       id="g3092"
       style="fill:none;fill-opacity:1;stroke:#eb0023;stroke-width:0.1;stroke-miterlimit:4.76800013;stroke-dasharray:none;stroke-opacity:1">
      <g
         style="fill:none;fill-opacity:1;stroke:#eb0023;stroke-width:0.1;stroke-miterlimit:4.76800013;stroke-dasharray:none;stroke-opacity:1"
         transform="rotate(180,538.92274,-3.0000801)"
         id="g169">
        <path
           style="fill:none;fill-opacity:1;stroke:#eb0023;stroke-width:0.37795275;stroke-miterlimit:4.76800013;stroke-dasharray:none;stroke-opacity:1"
           d="m 2658.4219,2416.4375 v 7.5566 h -10.1778 -8.7207 v 18.8985 c 0,-1e-4 1.5554,0 3.4883,0 1.9327,0 3.4883,-1e-4 3.4883,0 v 37.7949 c 0,1e-4 -1.5556,0 -3.4883,0 -1.9329,0 -3.4883,1e-4 -3.4883,0 v 37.7949 h 3.4883 3.4883 v 37.7949 c 0,10e-5 -1.5556,0 -3.4883,0 -1.9329,0 -3.4883,10e-5 -3.4883,0 v 37.795 c 0,-10e-5 1.5554,0 3.4883,0 1.9327,0 3.4883,-10e-5 3.4883,0 v 37.7949 h -3.4883 -3.4883 v 37.7969 c 0,-2e-4 1.5554,0 3.4883,0 1.9327,0 3.4883,-2e-4 3.4883,0 v 37.7949 h -3.4883 -3.4883 v 37.7949 h 3.4883 3.4883 v 37.7949 c 0,10e-5 -1.5556,0 -3.4883,0 -1.9329,0 -3.4883,10e-5 -3.4883,0 v 37.795 c 0,-1e-4 1.5554,-1e-4 3.4883,0 1.9327,-1e-4 3.4883,-1e-4 3.4883,0 v 37.7968 c 0,10e-5 -1.5556,0 -3.4883,0 -1.9329,0 -3.4883,10e-5 -3.4883,0 v 37.7949 h 3.4883 3.4883 v 37.795 h -3.4883 -3.4883 v 37.7949 c 0,-1e-4 1.5554,0 3.4883,0 1.9327,0 3.4883,-1e-4 3.4883,0 v 37.7949 h -3.4883 -3.4883 v 37.7969 h 3.4883 c 1.9327,0 3.4883,-1e-4 3.4883,0 v 37.7949 h -3.4883 -3.4883 v 11.6016 26.1933 c 0,1e-4 3.8888,0 8.7207,0 h 209.3301 c 4.832,0 8.7207,1e-4 8.7207,0 v -109.6074 h -28.9297 c -5.2346,0 -9.4492,1e-4 -9.4492,0 v -7.5586 c 0,0 4.2146,0 9.4492,0 h 28.9297 v -181.418 h -28.9297 c -5.2346,0 -9.4492,10e-5 -9.4492,0 v -7.5585 c 0,-10e-5 4.2146,0 9.4492,0 h 28.9297 v -181.418 h -28.9297 -9.4492 v -7.5586 c 0,-1e-4 4.2146,0 9.4492,0 h 28.9297 v -204.0918 -7.5586 h -9.4492 -9.4473 v 7.5566 H 2828.5 v -7.5566 h -9.4492 -9.4492 v 7.5566 h -18.8965 v -7.5566 h -9.4492 -9.4493 v 7.5566 h -18.8964 v -7.5566 h -9.4493 -9.4492 v 7.5566 h -18.8984 v -7.5566 h -9.4473 -9.4492 v 7.5566 h -18.8984 v -7.5566 h -9.4493 z m 0,706.7715 v 7.5586 c 0,10e-5 4.2126,0 9.4472,0 5.2348,0 9.4493,10e-5 9.4493,0 v -7.5586 h -9.4493 z m 37.7949,0 v 7.5586 c 0,10e-5 4.2146,0 9.4492,0 5.2346,0 9.4473,10e-5 9.4473,0 v -7.5586 h -9.4473 z m 37.7949,0 v 7.5586 c 0,10e-5 4.2146,0 9.4492,0 5.2348,0 9.4493,10e-5 9.4493,0 v -7.5586 h -9.4493 z m 37.7949,0 v 7.5586 c 0,10e-5 4.2147,0 9.4493,0 5.2347,0 9.4492,10e-5 9.4492,0 v -7.5586 h -9.4492 z m 37.795,0 v 7.5586 c 0,10e-5 4.2145,0 9.4492,0 5.2346,0 9.4492,10e-5 9.4492,0 v -7.5586 h -9.4492 z m 37.7968,0 v 7.5586 c 0,10e-5 4.2126,0 9.4473,0 5.2346,0 9.4492,10e-5 9.4492,0 v -7.5586 h -9.4492 z"
           transform="matrix(-0.26458333,0,0,-0.26458333,1030.2196,783.34825)"
           id="rect1110-2"
           inkscape:connector-curvature="0" />
      </g>
    </g>
    <path
       style="fill:none;fill-opacity:1;stroke:#eb0023;stroke-width:0.1;stroke-miterlimit:4.76800013;stroke-dasharray:none;stroke-opacity:1"
       d="M 495.9992,-347.9999 V -338 c 0,3e-5 0.44593,0 0.99994,0 0.55398,0 0.99994,3e-5 0.99994,0 v 50.00006 c 0,0 1.11511,0 2.5001,0 h 235.00013 c 1.38499,0 2.5001,0 2.5001,0 V -338 c 0,3e-5 0.44593,0 0.99994,0 0.55399,0 0.99994,3e-5 0.99994,0 v -9.9999 c 0,-2e-5 -0.44595,0 -0.99994,0 -0.55401,0 -0.99994,-2e-5 -0.99994,0 0,-2e-5 -1.11511,0 -2.5001,0 H 500.49918 c -1.38499,0 -2.5001,-2e-5 -2.5001,0 0,-2e-5 -0.44596,0 -0.99994,0 -0.55401,0 -0.99994,-2e-5 -0.99994,0 z"
       id="rect1459"
       inkscape:connector-curvature="0" />
    <path
       style="fill:none;fill-opacity:1;stroke:#eb0023;stroke-width:0.37795275;stroke-miterlimit:4.76800013;stroke-dasharray:none;stroke-opacity:1"
       d="m 2106.6191,2934.2305 v 3.7793 3.7793 h -18.8964 -37.7969 -37.7949 -94.4883 v -3.7774 -3.7793 h -75.5899 v 3.7793 3.7774 h -18.8984 -37.7949 -37.7949 -37.795 -11.3476 c 0,-10e-5 -3.3709,0 -7.5586,0 -4.1867,0 -7.5569,-10e-5 -7.5586,0 v 11.3379 c 0,0 0,0 0,0 v 0 h 7.5567 c 0.01,0 0,0 0.01,0 v 0 18.8945 c -0.01,0 0,0 -0.01,0 -4.1867,0 -7.5549,-10e-5 -7.5567,0 0,0 0,0 0,0 v 18.8984 c 0,0 0,0 0,0 0,1e-4 3.37,0 7.5567,0 0.01,0 0,0 0.01,0 v 0 18.8945 c -0.01,0 0,0 -0.01,0 -4.1867,0 -7.5569,0 -7.5586,0 v 18.8985 c 0,0 0,0 0,0 0,0 3.37,0 7.5567,0 0.01,0 0,0 0.01,0 v 0 18.8945 c -0.01,0 0,0 -0.01,0 -4.1877,0 -7.5586,0 -7.5586,0 v 18.8985 c 0,0 0,0 0,0 0,0 3.37,0 7.5567,0 0.01,0 0,0 0.01,0 v 0 18.8965 c -0.01,0 0,0 -0.01,0 -4.1867,0 -7.5569,0 -7.5586,0 v 18.8965 c 0,0 0,0 0,0 0,0 3.37,0 7.5567,0 0.01,0 0,0 0.01,0 v 0 18.8965 c -0.01,0 0,0 -0.01,0 -4.1867,0 -7.5569,0 -7.5586,0 v 18.8965 c 0,0 0,0 0,0 v 0 h 7.5567 v 0 c 0.01,0 0,0 0.01,0 v 0 18.8965 c 0,10e-5 1.6862,0 3.7793,0 2.0933,0 3.7774,10e-5 3.7774,0 h 1.8906 888.1856 1.8906 c 0,10e-5 1.6859,0 3.7793,0 2.0934,0 3.7793,10e-5 3.7793,0 -1e-4,0 0,-4.2127 0,-9.4473 0,-5.2346 -1e-4,-9.4492 0,-9.4492 h 7.5586 v -18.8965 h -7.5586 c -1e-4,0 0,-4.2146 0,-9.4492 0,-5.2348 -1e-4,-9.4512 0,-9.4512 h 7.5586 v -18.8945 h -7.5586 c -1e-4,0 0,-4.2164 0,-9.4512 0,-5.2346 -1e-4,-9.4492 0,-9.4492 h 7.5586 v -18.8965 h -7.5567 c 0,0 0,-4.2146 0,-9.4492 0,-5.2346 0,-9.4472 0,-9.4472 h 7.5567 v -18.8985 h -7.5567 c 0,0 0,-4.2126 0,-9.4472 0,-5.2347 0,-9.4493 0,-9.4493 h 7.5567 v -18.9004 h -7.5567 c 0,0 0,-4.2146 0,-9.4492 0,-5.2346 0,-9.4453 0,-9.4453 h 7.5567 v -11.3437 h -26.4532 -37.7949 -37.7949 -37.7949 -18.8946 c 1e-4,0 0,-1.6847 0,-3.7774 0,-2.0939 1e-4,-3.7793 0,-3.7793 h -75.5898 c -1e-4,0 0,1.6854 0,3.7793 0,2.0927 -1e-4,3.7757 0,3.7774 h -18.9043 -37.793 -37.7949 -37.7969 -37.7949 -18.8965 c 2e-4,0 0,-1.6855 0,-3.7793 0,-2.0939 2e-4,-3.7793 0,-3.7793 z"
       id="rect1053-27-80-7"
       transform="matrix(0.26458333,0,0,0.26458333,47.625847,-789.34841)"
       inkscape:connector-curvature="0" />
    <flowRoot
       xml:space="preserve"
       id="flowRoot2750"
       style="font-style:normal;font-weight:normal;font-size:96px;line-height:25px;font-family:sans-serif;letter-spacing:0px;word-spacing:0px;fill:none;fill-opacity:1;stroke:#eb0023;stroke-width:0.37795275;stroke-miterlimit:4.76800013;stroke-dasharray:none;stroke-opacity:1"
       transform="matrix(0.26458333,0,0,0.26458333,106.7059,-781.48671)"><flowRegion
         id="flowRegion2752"
         style="font-size:96px;fill:none;fill-opacity:1;stroke:#eb0023;stroke-width:0.37795275;stroke-miterlimit:4.76800013;stroke-dasharray:none;stroke-opacity:1"><rect
           id="rect2754"
           width="944.8819"
           height="113.38583"
           x="1436.2205"
           y="37.795319"
           style="font-size:96px;fill:none;fill-opacity:1;stroke:#eb0023;stroke-width:0.37795275;stroke-miterlimit:4.76800013;stroke-dasharray:none;stroke-opacity:1" /></flowRegion><flowPara
         id="flowPara2756">Frame</flowPara></flowRoot>    <flowRoot
       xml:space="preserve"
       id="flowRoot2750-8"
       style="font-style:normal;font-weight:normal;font-size:96px;line-height:25px;font-family:sans-serif;letter-spacing:0px;word-spacing:0px;fill:none;fill-opacity:1;stroke:#eb0023;stroke-width:0.37795275;stroke-miterlimit:4.76800013;stroke-dasharray:none;stroke-opacity:1"
       transform="matrix(0.26458333,0,0,0.26458333,-79.643864,-382.22917)"><flowRegion
         id="flowRegion2752-6"
         style="font-size:96px;fill:none;fill-opacity:1;stroke:#eb0023;stroke-width:0.37795275;stroke-miterlimit:4.76800013;stroke-dasharray:none;stroke-opacity:1"><rect
           id="rect2754-2"
           width="944.8819"
           height="113.38583"
           x="1436.2205"
           y="37.795319"
           style="font-size:96px;fill:none;fill-opacity:1;stroke:#eb0023;stroke-width:0.37795275;stroke-miterlimit:4.76800013;stroke-dasharray:none;stroke-opacity:1" /></flowRegion><flowPara
         id="flowPara2756-7">Tray - S size</flowPara></flowRoot>    <flowRoot
       xml:space="preserve"
       id="flowRoot2750-8-5"
       style="font-style:normal;font-weight:normal;font-size:96px;line-height:25px;font-family:sans-serif;letter-spacing:0px;word-spacing:0px;fill:none;fill-opacity:1;stroke:#eb0023;stroke-width:0.37795275;stroke-miterlimit:4.76800013;stroke-dasharray:none;stroke-opacity:1"
       transform="matrix(0.26458333,0,0,0.26458333,167.31635,-382.06547)"><flowRegion
         id="flowRegion2752-6-6"
         style="font-size:96px;fill:none;fill-opacity:1;stroke:#eb0023;stroke-width:0.37795275;stroke-miterlimit:4.76800013;stroke-dasharray:none;stroke-opacity:1"><rect
           id="rect2754-2-8"
           width="944.8819"
           height="113.38583"
           x="1436.2205"
           y="37.795319"
           style="font-size:96px;fill:none;fill-opacity:1;stroke:#eb0023;stroke-width:0.37795275;stroke-miterlimit:4.76800013;stroke-dasharray:none;stroke-opacity:1" /></flowRegion><flowPara
         id="flowPara2756-7-9">Tray - L size</flowPara></flowRoot>    <flowRoot
       xml:space="preserve"
       id="flowRoot3100"
       style="font-style:normal;font-weight:normal;font-size:42.66666794px;line-height:25px;font-family:sans-serif;letter-spacing:0px;word-spacing:0px;fill:none;fill-opacity:1;stroke:#eb0023;stroke-width:0.1;stroke-miterlimit:4.76800013;stroke-dasharray:none;stroke-opacity:1"><flowRegion
         id="flowRegion3102"
         style="font-size:42.66666794px;fill:none;fill-opacity:1;stroke:#eb0023;stroke-width:0.1;stroke-miterlimit:4.76800013;stroke-dasharray:none;stroke-opacity:1"><rect
           id="rect3104"
           width="680.31494"
           height="793.70081"
           x="122.35901"
           y="2291.7107"
           style="font-size:42.66666794px;fill:none;fill-opacity:1;stroke:#eb0023;stroke-width:0.1;stroke-miterlimit:4.76800013;stroke-dasharray:none;stroke-opacity:1" /></flowRegion><flowPara
         id="flowPara3106" /></flowRoot>    <flowRoot
       xml:space="preserve"
       id="flowRoot3108"
       style="font-style:normal;font-weight:normal;font-size:21.33333397px;line-height:25px;font-family:sans-serif;letter-spacing:0px;word-spacing:0px;fill:none;fill-opacity:1;stroke:#eb0023;stroke-width:0.1;stroke-miterlimit:4.76800013;stroke-dasharray:none;stroke-opacity:1"><flowRegion
         id="flowRegion3110"
         style="fill:none;fill-opacity:1;stroke:#eb0023;stroke-width:0.1;stroke-miterlimit:4.76800013;stroke-dasharray:none;stroke-opacity:1"><rect
           id="rect3112"
           width="680.31494"
           height="831.49603"
           x="84.563736"
           y="2253.9153"
           style="fill:none;fill-opacity:1;stroke:#eb0023;stroke-width:0.1;stroke-miterlimit:4.76800013;stroke-dasharray:none;stroke-opacity:1" /></flowRegion><flowPara
         id="flowPara3114" /></flowRoot>    <text
       xml:space="preserve"
       style="font-style:normal;font-weight:normal;font-size:11.28888893px;line-height:6.61458302px;font-family:sans-serif;letter-spacing:0px;word-spacing:0px;fill:none;fill-opacity:1;stroke:#eb0023;stroke-width:0.1;stroke-miterlimit:4.76800013;stroke-dasharray:none;stroke-opacity:1"
       x="60.61692"
       y="-71.417656"
       id="text3118"><tspan
         sodipodi:role="line"
         id="tspan3116"
         x="60.61692"
         y="-64.866722"
         style="font-size:11.28888893px;fill:none;fill-opacity:1;stroke:#eb0023;stroke-width:0.1;stroke-miterlimit:4.76800013;stroke-dasharray:none;stroke-opacity:1" /><tspan
         sodipodi:role="line"
         x="60.61692"
         y="-58.25214"
         style="font-size:11.28888893px;fill:none;fill-opacity:1;stroke:#eb0023;stroke-width:0.1;stroke-miterlimit:4.76800013;stroke-dasharray:none;stroke-opacity:1"
         id="tspan3128" /><tspan
         sodipodi:role="line"
         x="60.61692"
         y="-51.637558"
         style="font-size:11.28888893px;fill:none;fill-opacity:1;stroke:#eb0023;stroke-width:0.1;stroke-miterlimit:4.76800013;stroke-dasharray:none;stroke-opacity:1"
         id="tspan3130" /><tspan
         sodipodi:role="line"
         x="60.61692"
         y="-45.022976"
         style="font-size:11.28888893px;fill:none;fill-opacity:1;stroke:#eb0023;stroke-width:0.1;stroke-miterlimit:4.76800013;stroke-dasharray:none;stroke-opacity:1"
         id="tspan3132">Frame   - 500 X 500 X 200 with 5mm Acrylic : 1 Nos</tspan><tspan
         sodipodi:role="line"
         x="60.61692"
         y="-38.408394"
         style="font-size:11.28888893px;fill:none;fill-opacity:1;stroke:#eb0023;stroke-width:0.1;stroke-miterlimit:4.76800013;stroke-dasharray:none;stroke-opacity:1"
         id="tspan3120" /><tspan
         sodipodi:role="line"
         x="60.61692"
         y="-31.793812"
         style="font-size:11.28888893px;fill:none;fill-opacity:1;stroke:#eb0023;stroke-width:0.1;stroke-miterlimit:4.76800013;stroke-dasharray:none;stroke-opacity:1"
         id="tspan3122">Tray(S) - 50 X 60 X 200 with 2mm Acrylic : 40 Nos</tspan><tspan
         sodipodi:role="line"
         x="60.61692"
         y="-25.179228"
         style="font-size:11.28888893px;fill:none;fill-opacity:1;stroke:#eb0023;stroke-width:0.1;stroke-miterlimit:4.76800013;stroke-dasharray:none;stroke-opacity:1"
         id="tspan3140" /><tspan
         sodipodi:role="line"
         x="60.61692"
         y="-18.564646"
         style="font-size:11.28888893px;fill:none;fill-opacity:1;stroke:#eb0023;stroke-width:0.1;stroke-miterlimit:4.76800013;stroke-dasharray:none;stroke-opacity:1"
         id="tspan3142">Tray(L)  - 240 X 60 X 200 with 2mm Acrylic : 4 Nos</tspan><tspan
         sodipodi:role="line"
         x="60.61692"
         y="-11.950063"
         style="font-size:11.28888893px;fill:none;fill-opacity:1;stroke:#eb0023;stroke-width:0.1;stroke-miterlimit:4.76800013;stroke-dasharray:none;stroke-opacity:1"
         id="tspan3169" /><tspan
         sodipodi:role="line"
         x="60.61692"
         y="-5.3354802"
         style="font-size:11.28888893px;fill:none;fill-opacity:1;stroke:#eb0023;stroke-width:0.1;stroke-miterlimit:4.76800013;stroke-dasharray:none;stroke-opacity:1"
         id="tspan3171">Back support - 500 X 20 X 5 with 5 mm Acrylic : 7 Nos</tspan><tspan
         sodipodi:role="line"
         x="60.61692"
         y="1.2791023"
         style="font-size:11.28888893px;fill:none;fill-opacity:1;stroke:#eb0023;stroke-width:0.1;stroke-miterlimit:4.76800013;stroke-dasharray:none;stroke-opacity:1"
         id="tspan3175" /><tspan
         sodipodi:role="line"
         x="60.61692"
         y="7.8936849"
         style="font-size:11.28888893px;fill:none;fill-opacity:1;stroke:#eb0023;stroke-width:0.1;stroke-miterlimit:4.76800013;stroke-dasharray:none;stroke-opacity:1"
         id="tspan3177">Base support - 500 X 20 X 5 with 5 mm Acrylic : 7 X 2 Nos </tspan><tspan
         sodipodi:role="line"
         x="60.61692"
         y="14.508267"
         style="font-size:11.28888893px;fill:none;fill-opacity:1;stroke:#eb0023;stroke-width:0.1;stroke-miterlimit:4.76800013;stroke-dasharray:none;stroke-opacity:1"
         id="tspan3173" /><tspan
         sodipodi:role="line"
         x="60.61692"
         y="21.12285"
         style="font-size:11.28888893px;fill:none;fill-opacity:1;stroke:#eb0023;stroke-width:0.1;stroke-miterlimit:4.76800013;stroke-dasharray:none;stroke-opacity:1"
         id="tspan3124" /></text>
    <text
       xml:space="preserve"
       style="font-style:normal;font-weight:normal;font-size:5.64444447px;line-height:6.61458302px;font-family:sans-serif;letter-spacing:0px;word-spacing:0px;fill:none;fill-opacity:1;stroke:#eb0023;stroke-width:0.1;stroke-miterlimit:4.76800013;stroke-dasharray:none;stroke-opacity:1"
       x="300"
       y="-62.999989"
       id="text3136"><tspan
         sodipodi:role="line"
         id="tspan3134"
         x="300"
         y="-58.070877"
         style="fill:none;fill-opacity:1;stroke:#eb0023;stroke-width:0.1;stroke-miterlimit:4.76800013;stroke-dasharray:none;stroke-opacity:1" /><tspan
         sodipodi:role="line"
         x="300"
         y="-51.456295"
         style="fill:none;fill-opacity:1;stroke:#eb0023;stroke-width:0.1;stroke-miterlimit:4.76800013;stroke-dasharray:none;stroke-opacity:1"
         id="tspan3138" /></text>
    <text
       xml:space="preserve"
       style="font-style:normal;font-weight:normal;font-size:5.64444447px;line-height:6.61458302px;font-family:sans-serif;letter-spacing:0px;word-spacing:0px;fill:none;fill-opacity:1;stroke:#eb0023;stroke-width:0.1;stroke-miterlimit:4.76800013;stroke-dasharray:none;stroke-opacity:1"
       x="300"
       y="-62.999989"
       id="text3146"><tspan
         sodipodi:role="line"
         id="tspan3144"
         x="300"
         y="-58.070877"
         style="fill:none;fill-opacity:1;stroke:#eb0023;stroke-width:0.1;stroke-miterlimit:4.76800013;stroke-dasharray:none;stroke-opacity:1" /></text>
  </g>
</svg>
